<?xml version="1.0" ?><!DOCTYPE svg  PUBLIC '-//W3C//DTD SVG 1.1//EN'  'http://www.w3.org/Graphics/SVG/1.1/DTD/svg11.dtd'><svg xmlns:xlink="http://www.w3.org/1999/xlink" xmlns="http://www.w3.org/2000/svg" width="430.2pt" height="430.2pt" viewBox="0 0 430.2 430.2" version="1.1">
 <metadata>
  <rdf:RDF xmlns:dc="http://purl.org/dc/elements/1.1/" xmlns:cc="http://creativecommons.org/ns#" xmlns:rdf="http://www.w3.org/1999/02/22-rdf-syntax-ns#">
   <cc:Work>
    <dc:type rdf:resource="http://purl.org/dc/dcmitype/StillImage"/>
    <dc:date>2024-10-28T17:59:59.257308</dc:date>
    <dc:format>image/svg+xml</dc:format>
    <dc:creator>
     <cc:Agent>
      <dc:title>Matplotlib v3.9.2, https://matplotlib.org/</dc:title>
     </cc:Agent>
    </dc:creator>
   </cc:Work>
  </rdf:RDF>
 </metadata>
 <defs>
  <style type="text/css">*{stroke-linejoin: round; stroke-linecap: butt}</style>
 </defs>
 <g id="figure_1">
  <g id="patch_1">
   <path d="M 0 430.2  L 430.2 430.2  L 430.2 0  L 0 0  z " style="fill: #ffffff"/>
  </g>
  <g id="axes_1">
   <g id="line2d_1">
    <path d="M 306.7839 141.14997  L 211.625991 45.992061  L 263.3328 97.69887  L 168.174891 192.856779  L 219.8817 141.14997  L 315.039609 236.307879  L 263.3328 184.60107  L 358.490709 89.443161  L 306.7839 141.14997  " clip-path="url(#pd2c870f24e)" style="fill: none; stroke: #000000; stroke-linecap: square"/>
   </g>
   <g id="line2d_2">
    <path d="M 306.706657 119.581245  L 164.482401 71.828005  L 241.764075 97.776113  L 194.010835 240.000369  L 219.958943 162.718695  L 362.183199 210.471935  L 284.901525 184.523827  L 332.654765 42.299571  L 306.706657 119.581245  " clip-path="url(#pd2c870f24e)" style="fill: none; stroke: #000000; stroke-linecap: square"/>
   </g>
   <g id="line2d_3">
    <path d="M 295.577257 98.546074  L 131.659364 121.233245  L 220.728904 108.905513  L 243.416075 272.823406  L 231.088343 183.753866  L 395.006236 161.066695  L 305.936696 173.394427  L 283.249525 9.476534  L 295.577257 98.546074  " clip-path="url(#pd2c870f24e)" style="fill: none; stroke: #000000; stroke-linecap: square"/>
   </g>
   <g id="line2d_4">
    <path d="M 274.159387 83.742046  L 124.725808 185.755175  L 205.924876 130.323383  L 307.938005 279.756962  L 252.506213 198.557894  L 401.939792 96.544765  L 320.740724 151.976557  L 218.727595 2.542978  L 274.159387 83.742046  " clip-path="url(#pd2c870f24e)" style="fill: none; stroke: #000000; stroke-linecap: square"/>
   </g>
   <g id="line2d_5">
    <path d="M 246.110246 80.12417  L 150.181137 251.488067  L 202.307 158.372524  L 373.670897 254.301633  L 280.555354 202.17577  L 376.484463 30.811873  L 324.3586 123.927416  L 152.994703 27.998307  L 246.110246 80.12417  " clip-path="url(#pd2c870f24e)" style="fill: none; stroke: #000000; stroke-linecap: square"/>
   </g>
   <g id="line2d_6">
    <path d="M 217.387716 90.479602  L 207.039344 302.067441  L 212.662432 187.095054  L 424.250271 197.443426  L 309.277884 191.820338  L 318.708372 -1  M 318.708372 -1  L 314.003168 95.204886  L 102.415329 84.856514  L 217.387716 90.479602  " clip-path="url(#pd2c870f24e)" style="fill: none; stroke: #000000; stroke-linecap: square"/>
   </g>
   <g id="line2d_7">
    <path d="M 194.985146 114.419846  L 286.127537 322.640179  L 236.602676 209.497624  L 431.2 124.318309  M 431.2 124.318309  L 331.680454 167.880094  L 257.758108 -1  M 257.758108 -1  L 290.062924 72.802316  L 81.842591 163.944707  L 194.985146 114.419846  " clip-path="url(#pd2c870f24e)" style="fill: none; stroke: #000000; stroke-linecap: square"/>
   </g>
   <g id="line2d_8">
    <path d="M 185.262367 148.090103  L 371.435505 303.86546  L 270.272933 219.220403  L 426.04829 33.047265  L 341.403233 134.209837  L 179.808741 -1  M 179.808741 -1  L 256.392667 63.079537  L 100.61731 249.252675  L 185.262367 148.090103  " clip-path="url(#pd2c870f24e)" style="fill: none; stroke: #000000; stroke-linecap: square"/>
   </g>
   <g id="line2d_9">
    <path d="M 192.26519 184.734388  L 431.2 242.009357  M 431.2 242.009357  L 306.917218 212.21758  L 358.02752 -1  M 358.02752 -1  L 334.40041 97.565552  L 83.312468 37.377361  L 219.748382 70.08236  L 159.560191 321.170302  L 192.26519 184.734388  " clip-path="url(#pd2c870f24e)" style="fill: none; stroke: #000000; stroke-linecap: square"/>
   </g>
   <g id="line2d_10">
    <path d="M 216.458158 216.048673  L 431.2 166.629496  M 431.2 166.629496  L 338.231503 188.024612  L 294.730708 -1  M 294.730708 -1  L 310.207442 66.251267  L 43.523816 127.623961  L 188.434097 94.275328  L 249.806791 360.958954  L 216.458158 216.048673  " clip-path="url(#pd2c870f24e)" style="fill: none; stroke: #000000; stroke-linecap: square"/>
   </g>
   <g id="line2d_11">
    <path d="M 254.223719 234.051562  L 431.2 88.681606  M 431.2 88.681606  L 356.234392 150.259051  L 231.988807 -1  M 231.988807 -1  L 272.441881 48.248378  L 49.038508 231.753977  L 170.431208 132.040889  L 353.936807 355.444262  L 254.223719 234.051562  " clip-path="url(#pd2c870f24e)" style="fill: none; stroke: #000000; stroke-linecap: square"/>
   </g>
   <g id="line2d_12">
    <path d="M 298.317016 233.053241  L 403.308372 -1  M 403.308372 -1  L 355.236071 106.165754  L 116.335527 -1  M 116.335527 -1  L 228.348584 49.246699  L 103.695854 327.130295  L 171.429529 176.134186  L 431.2 292.66175  M 431.2 292.66175  L 298.317016 233.053241  " clip-path="url(#pd2c870f24e)" style="fill: none; stroke: #000000; stroke-linecap: square"/>
   </g>
   <g id="line2d_13">
    <path d="M 339.244342 211.248202  L 330.79378 -1  M 330.79378 -1  L 333.431032 65.238428  L 13.669628 77.969577  L 187.421258 71.051738  L 200.152407 390.813142  L 193.234568 217.061512  L 431.2 207.587031  M 431.2 207.587031  L 339.244342 211.248202  " clip-path="url(#pd2c870f24e)" style="fill: none; stroke: #000000; stroke-linecap: square"/>
   </g>
   <g id="line2d_14">
    <path d="M 367.30558 171.514346  L 272.77845 -1  M 272.77845 -1  L 293.697176 37.17719  L -0.501194 198.379595  L 159.36002 110.785594  L 320.562425 404.983964  L 232.968424 245.12275  L 431.2 136.504178  M 431.2 136.504178  L 367.30558 171.514346  " clip-path="url(#pd2c870f24e)" style="fill: none; stroke: #000000; stroke-linecap: square"/>
   </g>
   <g id="line2d_15">
    <path d="M 374.861556 121.163152  L 199.353396 -1  M 199.353396 -1  L 243.345982 29.621214  L 42.869138 317.640321  L 151.804044 161.136788  L 431.2 355.611453  M 431.2 355.611453  L 283.319618 252.678726  L 431.2 40.223388  M 431.2 40.223388  L 374.861556 121.163152  " clip-path="url(#pd2c870f24e)" style="fill: none; stroke: #000000; stroke-linecap: square"/>
   </g>
   <g id="line2d_16">
    <path d="M 358.302174 70.619489  L -1 17.56236  M -1 17.56236  L 192.802319 46.180596  L 139.281145 408.625278  L 168.363426 211.680451  L 431.2 250.49278  M 431.2 250.49278  L 333.863281 236.119344  L 368.878019 -1  M 368.878019 -1  L 358.302174 70.619489  " clip-path="url(#pd2c870f24e)" style="fill: none; stroke: #000000; stroke-linecap: square"/>
   </g>
   <g id="line2d_17">
    <path d="M 319.226181 31.26345  L -1 135.558462  M -1 135.558462  L 153.44628 85.256589  L 266.11718 431.2  M 266.11718 431.2  L 207.439419 251.03649  L 431.2 178.159524  M 431.2 178.159524  L 373.21932 197.043351  L 308.718243 -1  M 308.718243 -1  L 319.226181 31.26345  " clip-path="url(#pd2c870f24e)" style="fill: none; stroke: #000000; stroke-linecap: square"/>
   </g>
   <g id="line2d_18">
    <path d="M 264.496965 12.880953  L -1 273.601983  M -1 273.601983  L 135.063783 139.985805  L 413.42341 423.444473  L 262.168635 269.418987  L 431.2 103.42827  M 431.2 103.42827  L 391.601817 142.314135  L 250.865712 -1  M 250.865712 -1  L 264.496965 12.880953  " clip-path="url(#pd2c870f24e)" style="fill: none; stroke: #000000; stroke-linecap: square"/>
   </g>
   <g id="line2d_19">
    <path d="M 205.081048 21.291718  L 70.162814 411.352626  L 143.474548 199.401722  L 431.2 298.923128  M 431.2 298.923128  L 321.584552 261.008222  L 412.210621 -1  M 412.210621 -1  L 383.191052 82.898218  L 140.633659 -1  M 140.633659 -1  L 205.081048 21.291718  " clip-path="url(#pd2c870f24e)" style="fill: none; stroke: #000000; stroke-linecap: square"/>
   </g>
   <g id="line2d_20">
    <path d="M 153.854901 56.718815  L 202.225692 431.2  M 202.225692 431.2  L 178.901645 250.627869  L 431.2 218.039126  M 431.2 218.039126  L 372.810699 225.581125  L 343.543786 -1  M 343.543786 -1  L 347.763955 31.672071  L -1 76.721032  M -1 76.721032  L 153.854901 56.718815  " clip-path="url(#pd2c870f24e)" style="fill: none; stroke: #000000; stroke-linecap: square"/>
   </g>
   <g id="line2d_21">
    <path d="M 122.817743 113.327239  L 335.615008 431.2  M 335.615008 431.2  L 235.510069 281.665027  L 431.2 150.662037  M 431.2 150.662037  L 403.847857 168.972701  L 290.061052 -1  M 290.061052 -1  L 291.155531 0.634913  L -1 196.215993  M -1 196.215993  L 122.817743 113.327239  " clip-path="url(#pd2c870f24e)" style="fill: none; stroke: #000000; stroke-linecap: square"/>
   </g>
   <g id="line2d_22">
    <path d="M 120.312967 180.114836  L 431.2 357.873406  M 431.2 357.873406  L 302.297666 284.169803  L 431.2 58.728835  M 431.2 58.728835  L 406.352633 102.185104  L 225.889262 -1  M 223.870565 -1  L -1 392.282544  M -1 392.282544  L 120.312967 180.114836  " clip-path="url(#pd2c870f24e)" style="fill: none; stroke: #000000; stroke-linecap: square"/>
   </g>
   <g id="line2d_23">
    <path d="M 148.895608 243.038155  L 431.2 259.414596  M 431.2 259.414596  L 365.220985 255.587162  L 380.105573 -1  M 380.105573 -1  L 377.769992 39.261785  L -1 17.289387  M -1 17.289387  L 161.444615 26.712778  L 137.980364 431.2  M 137.980364 431.2  L 148.895608 243.038155  " clip-path="url(#pd2c870f24e)" style="fill: none; stroke: #000000; stroke-linecap: square"/>
   </g>
   <g id="line2d_24">
    <path d="M 204.372939 287.965296  L 431.2 191.121759  M 431.2 191.121759  L 410.148126 200.109831  L 324.284529 -1  M 311.365457 -1  L -1 132.364051  M -1 132.364051  L 116.517474 82.190109  L 265.526821 431.2  M 265.526821 431.2  L 204.372939 287.965296  " clip-path="url(#pd2c870f24e)" style="fill: none; stroke: #000000; stroke-linecap: square"/>
   </g>
   <g id="line2d_25">
    <path d="M 276.307812 303.834876  L 431.2 122.094389  M 431.2 122.094389  L 426.017706 128.174958  L 274.452155 -1  M 232.856453 -1  L -1 273.392055  M -1 273.392055  L 100.647894 154.124982  L 425.749822 431.2  M 425.749822 431.2  L 276.307812 303.834876  " clip-path="url(#pd2c870f24e)" style="fill: none; stroke: #000000; stroke-linecap: square"/>
   </g>
   <g id="line2d_26">
    <path d="M 349.95762 285.317881  L 421.344686 -1  M 421.344686 -1  L 407.500711 54.52515  L 184.8015 -1  M 176.20485 -1  L 68.445288 431.2  M 68.445288 431.2  L 119.164889 227.77479  L 431.2 305.573881  M 431.2 305.573881  L 349.95762 285.317881  " clip-path="url(#pd2c870f24e)" style="fill: none; stroke: #000000; stroke-linecap: square"/>
   </g>
   <g id="line2d_27">
    <path d="M 409.294399 234.352794  L 357.376455 -1  M 339.256866 -1  L -1 74.059389  M -1 74.059389  L 117.371201 47.947146  L 201.915344 431.2  M 201.915344 431.2  L 170.129976 287.111569  L 431.2 229.520501  M 431.2 229.520501  L 409.294399 234.352794  " clip-path="url(#pd2c870f24e)" style="fill: none; stroke: #000000; stroke-linecap: square"/>
   </g>
   <g id="line2d_28">
    <path d="M 431.2 148.626351  L 310.552966 -1  M 238.914693 -1  L -1 192.448521  M -1 192.448521  L 86.17793 122.155029  L 335.367722 431.2  M 335.367722 431.2  L 244.337859 318.30484  L 431.2 167.633765  " clip-path="url(#pd2c870f24e)" style="fill: none; stroke: #000000; stroke-linecap: square"/>
   </g>
   <g id="line2d_29">
    <path d="M 431.2 75.755802  L 264.16736 -1  M 186.120902 -1  L -1 406.204374  M -1 406.204374  L 91.571348 204.754629  L 431.2 360.822746  M 431.2 360.822746  L 326.937459 312.911422  L 431.2 86.019812  " clip-path="url(#pd2c870f24e)" style="fill: none; stroke: #000000; stroke-linecap: square"/>
   </g>
   <g id="line2d_30">
    <path d="M 392.225717 4.084838  L -1 16.167666  M -1 16.167666  L 126.267668 12.257053  L 139.140721 431.2  M 139.140721 431.2  L 134.439883 278.215102  L 431.2 269.096417  M 431.2 269.096417  L 400.397932 270.042887  L 392.069472 -1  M 392.069472 -1  L 392.225717 4.084838  " clip-path="url(#pd2c870f24e)" style="fill: none; stroke: #000000; stroke-linecap: square"/>
   </g>
   <g id="line2d_31">
    <path d="M 239.435456 -1  L -1 127.920361  M -1 127.920361  L 78.436974 85.326629  L 263.892648 431.2  M 263.892648 431.2  L 207.509459 326.045796  L 431.2 206.10398  M 431.2 165.215058  L 342.076268 -1  " clip-path="url(#pd2c870f24e)" style="fill: none; stroke: #000000; stroke-linecap: square"/>
   </g>
   <g id="line2d_32">
    <path d="M 192.416811 -1  L -1 271.566684  M -1 271.566684  L 68.001802 174.32802  L 429.990728 431.2  M 429.990728 431.2  L 296.51085 336.480968  L 431.2 146.674432  M 431.2 88.483257  L 305.098476 -1  " clip-path="url(#pd2c870f24e)" style="fill: none; stroke: #000000; stroke-linecap: square"/>
   </g>
   <g id="line2d_33">
    <path d="M 140.259093 -1  L 72.423804 431.2  M 72.423804 431.2  L 99.173503 260.769237  L 431.2 312.881947  M 431.2 312.881947  L 382.952067 305.309267  L 431.028369 -1  M 431.028369 -1  L 427.492097 21.530703  L 283.941889 -1  " clip-path="url(#pd2c870f24e)" style="fill: none; stroke: #000000; stroke-linecap: square"/>
   </g>
   <g id="line2d_34">
    <path d="M 78.705307 45.120877  L 200.583767 431.2  M 200.583767 431.2  L 167.303707 325.777463  L 431.2 242.469996  M 431.2 184.086832  L 372.771308 -1  M 224.804196 -1  L -1 70.282455  M -1 70.282455  L 78.705307 45.120877  " clip-path="url(#pd2c870f24e)" style="fill: none; stroke: #000000; stroke-linecap: square"/>
   </g>
   <g id="line2d_35">
    <path d="M 50.270404 137.282159  L 333.707283 431.2  M 333.707283 431.2  L 259.464989 354.212366  L 431.2 188.601339  M 431.2 98.151352  L 335.584335 -1  M 193.665977 -1  L -1 186.724287  M -1 186.724287  L 50.270404 137.282159  " clip-path="url(#pd2c870f24e)" style="fill: none; stroke: #000000; stroke-linecap: square"/>
   </g>
   <g id="line2d_36">
    <path d="M 66.327026 234.695189  L 431.2 364.620611  M 431.2 364.620611  L 356.878019 338.155744  L 431.2 129.435374  M 431.2 37.228971  L 323.840577 -1  M 150.254307 -1  L -1 423.771444  M -1 423.771444  L 66.327026 234.695189  " clip-path="url(#pd2c870f24e)" style="fill: none; stroke: #000000; stroke-linecap: square"/>
   </g>
   <g id="line2d_37">
    <path d="M 125.502716 316.552599  L 431.2 279.883935  M 431.2 216.159109  L 405.15157 -1  M 123.943961 -1  L -1 13.98714  M -1 13.98714  L 87.930171 3.319886  L 139.254775 431.2  M 139.254775 431.2  L 125.502716 316.552599  " clip-path="url(#pd2c870f24e)" style="fill: none; stroke: #000000; stroke-linecap: square"/>
   </g>
   <g id="line2d_38">
    <path d="M 217.005899 364.461536  L 431.2 223.869314  M 431.2 103.00665  L 362.932359 -1  M 186.008941 -1  L -1 121.74849  M -1 121.74849  L 40.021234 94.823069  L 260.811535 431.2  M 260.811535 431.2  L 217.005899 364.461536  " clip-path="url(#pd2c870f24e)" style="fill: none; stroke: #000000; stroke-linecap: square"/>
   </g>
   <g id="line2d_39">
    <path d="M 322.551272 366.556769  L 431.2 180.477673  M 431.2 48.335009  L 346.705556 -1  M 155.501944 -1  L -1 267.03572  M -1 267.03572  L 37.926001 200.368442  L 431.2 429.995094  M 431.2 429.995094  L 322.551272 366.556769  " clip-path="url(#pd2c870f24e)" style="fill: none; stroke: #000000; stroke-linecap: square"/>
   </g>
   <g id="line2d_40">
    <path d="M 420.005782 320.368375  L 431.2 153.592113  M 104.171741 -1  L 75.161971 431.2  M 75.161971 431.2  L 84.114395 297.822952  L 431.2 321.119744  M 431.2 321.119744  L 420.005782 320.368375  " clip-path="url(#pd2c870f24e)" style="fill: none; stroke: #000000; stroke-linecap: square"/>
   </g>
   <g id="line2d_41">
    <path d="M 431.2 97.23829  L 390.307347 -1  M 157.639443 -1  L -1 65.035227  M -1 65.035227  L 38.635662 48.536493  L 197.923106 431.2  M 197.923106 431.2  L 170.719323 365.847108  L 431.2 257.419467  " clip-path="url(#pd2c870f24e)" style="fill: none; stroke: #000000; stroke-linecap: square"/>
   </g>
   <g id="line2d_42">
    <path d="M 431.2 54.629249  L 367.115566 -1  M 154.487934 -1  L -1 178.120812  M -1 178.120812  L 15.924415 158.624026  L 329.929678 431.2  M 329.929678 431.2  L 280.806856 388.558355  L 431.2 215.3067  " clip-path="url(#pd2c870f24e)" style="fill: none; stroke: #000000; stroke-linecap: square"/>
   </g>
   <g id="line2d_43">
    <path d="M 431.2 -0.185054  L 428.05337 -1  M 115.33727 -1  L 3.401778 431.2  M 3.401778 431.2  L 45.283489 269.488328  L 431.2 369.436857  M 431.2 369.436857  L 391.671158 359.199281  L 431.2 206.572394  " clip-path="url(#pd2c870f24e)" style="fill: none; stroke: #000000; stroke-linecap: square"/>
   </g>
   <g id="line2d_44">
    <path d="M 53.444543 -1  L -1 10.493115  M -1 10.493115  L 47.148935 0.328988  L 138.104792 431.2  M 138.104792 431.2  L 122.511818 357.333835  L 431.2 292.170486  M 431.2 53.087941  L 419.782163 -1  " clip-path="url(#pd2c870f24e)" style="fill: none; stroke: #000000; stroke-linecap: square"/>
   </g>
   <g id="line2d_45">
    <path d="M 143.286378 -1  L -1 113.196054  M -1 113.196054  L 2.103386 110.739867  L 255.732893 431.2  M 255.732893 431.2  L 232.922697 402.379384  L 431.2 245.451986  M 431.2 53.597192  L 387.988825 -1  " clip-path="url(#pd2c870f24e)" style="fill: none; stroke: #000000; stroke-linecap: square"/>
   </g>
   <g id="line2d_46">
    <path d="M 120.799314 -1  L -1 257.836718  M -1 257.836718  L 11.192655 231.926008  L 431.2 429.566462  M 431.2 429.566462  L 354.108838 393.290115  L 431.2 229.463057  M 431.2 10.718094  L 406.297782 -1  " clip-path="url(#pd2c870f24e)" style="fill: none; stroke: #000000; stroke-linecap: square"/>
   </g>
   <g id="line2d_47">
    <path d="M 67.189839 -1  L 76.545007 431.2  M 76.545007 431.2  L 74.534202 338.302663  L 431.2 330.582466  " clip-path="url(#pd2c870f24e)" style="fill: none; stroke: #000000; stroke-linecap: square"/>
   </g>
   <g id="line2d_48">
    <path d="M -1 60.353925  L 193.533441 431.2  M 193.533441 431.2  L 180.581163 406.508608  L 431.2 275.042353  M 431.2 38.050182  L 410.715581 -1  M 111.207335 -1  L -1 57.860213  " clip-path="url(#pd2c870f24e)" style="fill: none; stroke: #000000; stroke-linecap: square"/>
   </g>
   <g id="line2d_49">
    <path d="M -1 196.879337  L 322.939302 431.2  M 322.939302 431.2  L 308.181449 420.524945  L 431.2 250.45653  M 431.2 15.642459  L 408.192441 -1  M 119.222796 -1  L -1 165.203391  " clip-path="url(#pd2c870f24e)" style="fill: none; stroke: #000000; stroke-linecap: square"/>
   </g>
   <g id="line2d_50">
    <path d="M 29.090385 308.60384  L 431.2 375.461108  M 431.2 375.461108  L 430.78667 375.392385  L 431.2 372.906432  M 80.567062 -1  L 8.706778 431.2  M 8.706778 431.2  L 29.090385 308.60384  " clip-path="url(#pd2c870f24e)" style="fill: none; stroke: #000000; stroke-linecap: square"/>
   </g>
  </g>
 </g>
 <defs>
  <clipPath id="pd2c870f24e">
   
  </clipPath>
 </defs>
</svg>