<?xml version="1.0" ?><!DOCTYPE svg  PUBLIC '-//W3C//DTD SVG 1.1//EN'  'http://www.w3.org/Graphics/SVG/1.1/DTD/svg11.dtd'><svg xmlns:xlink="http://www.w3.org/1999/xlink" xmlns="http://www.w3.org/2000/svg" width="430.2pt" height="430.2pt" viewBox="0 0 430.2 430.2" version="1.1">
 <metadata>
  <rdf:RDF xmlns:dc="http://purl.org/dc/elements/1.1/" xmlns:cc="http://creativecommons.org/ns#" xmlns:rdf="http://www.w3.org/1999/02/22-rdf-syntax-ns#">
   <cc:Work>
    <dc:type rdf:resource="http://purl.org/dc/dcmitype/StillImage"/>
    <dc:date>2024-10-29T17:21:41.707990</dc:date>
    <dc:format>image/svg+xml</dc:format>
    <dc:creator>
     <cc:Agent>
      <dc:title>Matplotlib v3.9.2, https://matplotlib.org/</dc:title>
     </cc:Agent>
    </dc:creator>
   </cc:Work>
  </rdf:RDF>
 </metadata>
 <defs>
  <style type="text/css">*{stroke-linejoin: round; stroke-linecap: butt}</style>
 </defs>
 <g id="figure_1">
  <g id="patch_1">
   <path d="M 0 430.2  L 430.2 430.2  L 430.2 0  L 0 0  z " style="fill: #ffffff"/>
  </g>
  <g id="axes_1">
   <g id="line2d_1">
    <path d="M 298.26 215.1  L 215.1 131.94  L 131.94 215.1  L 215.1 298.26  L 298.26 215.1  " clip-path="url(#p8d69a4f42a)" style="fill: none; stroke: #000000; stroke-linecap: square"/>
   </g>
   <g id="line2d_2">
    <path d="M 308.655 215.1  L 215.1 121.545  L 121.545 215.1  L 215.1 308.655  L 308.655 215.1  " clip-path="url(#p8d69a4f42a)" style="fill: none; stroke: #000000; stroke-linecap: square"/>
   </g>
   <g id="line2d_3">
    <path d="M 319.05 215.1  L 215.1 111.15  L 111.15 215.1  L 215.1 319.05  L 319.05 215.1  " clip-path="url(#p8d69a4f42a)" style="fill: none; stroke: #000000; stroke-linecap: square"/>
   </g>
   <g id="line2d_4">
    <path d="M 329.445 215.1  L 215.1 100.755  L 100.755 215.1  L 215.1 329.445  L 329.445 215.1  " clip-path="url(#p8d69a4f42a)" style="fill: none; stroke: #000000; stroke-linecap: square"/>
   </g>
   <g id="line2d_5">
    <path d="M 339.84 215.1  L 215.1 90.36  L 90.36 215.1  L 215.1 339.84  L 339.84 215.1  " clip-path="url(#p8d69a4f42a)" style="fill: none; stroke: #000000; stroke-linecap: square"/>
   </g>
   <g id="line2d_6">
    <path d="M 350.235 215.1  L 215.1 79.965  L 79.965 215.1  L 215.1 350.235  L 350.235 215.1  " clip-path="url(#p8d69a4f42a)" style="fill: none; stroke: #000000; stroke-linecap: square"/>
   </g>
   <g id="line2d_7">
    <path d="M 360.63 215.1  L 215.1 69.57  L 69.57 215.1  L 215.1 360.63  L 360.63 215.1  " clip-path="url(#p8d69a4f42a)" style="fill: none; stroke: #000000; stroke-linecap: square"/>
   </g>
   <g id="line2d_8">
    <path d="M 371.025 215.1  L 215.1 59.175  L 59.175 215.1  L 215.1 371.025  L 371.025 215.1  " clip-path="url(#p8d69a4f42a)" style="fill: none; stroke: #000000; stroke-linecap: square"/>
   </g>
   <g id="line2d_9">
    <path d="M 381.42 215.1  L 215.1 48.78  L 48.78 215.1  L 215.1 381.42  L 381.42 215.1  " clip-path="url(#p8d69a4f42a)" style="fill: none; stroke: #000000; stroke-linecap: square"/>
   </g>
   <g id="line2d_10">
    <path d="M 391.815 215.1  L 215.1 38.385  L 38.385 215.1  L 215.1 391.815  L 391.815 215.1  " clip-path="url(#p8d69a4f42a)" style="fill: none; stroke: #000000; stroke-linecap: square"/>
   </g>
   <g id="line2d_11">
    <path d="M 402.21 215.1  L 215.1 27.99  L 27.99 215.1  L 215.1 402.21  L 402.21 215.1  " clip-path="url(#p8d69a4f42a)" style="fill: none; stroke: #000000; stroke-linecap: square"/>
   </g>
   <g id="line2d_12">
    <path d="M 412.605 215.1  L 215.1 17.595  L 17.595 215.1  L 215.1 412.605  L 412.605 215.1  " clip-path="url(#p8d69a4f42a)" style="fill: none; stroke: #000000; stroke-linecap: square"/>
   </g>
   <g id="line2d_13">
    <path d="M 423 215.1  L 215.1 7.2  L 7.2 215.1  L 215.1 423  L 423 215.1  " clip-path="url(#p8d69a4f42a)" style="fill: none; stroke: #000000; stroke-linecap: square"/>
   </g>
   <g id="line2d_14">
    <path d="M 431.2 212.905  L 217.295 -1  M 212.905 -1  L -1 212.905  M -1 217.295  L 212.905 431.2  M 217.295 431.2  L 431.2 217.295  " clip-path="url(#p8d69a4f42a)" style="fill: none; stroke: #000000; stroke-linecap: square"/>
   </g>
   <g id="line2d_15">
    <path d="M 431.2 202.51  L 227.69 -1  M 202.51 -1  L -1 202.51  M -1 227.69  L 202.51 431.2  M 227.69 431.2  L 431.2 227.69  " clip-path="url(#p8d69a4f42a)" style="fill: none; stroke: #000000; stroke-linecap: square"/>
   </g>
   <g id="line2d_16">
    <path d="M 431.2 192.115  L 238.085 -1  M 192.115 -1  L -1 192.115  M -1 238.085  L 192.115 431.2  M 238.085 431.2  L 431.2 238.085  " clip-path="url(#p8d69a4f42a)" style="fill: none; stroke: #000000; stroke-linecap: square"/>
   </g>
   <g id="line2d_17">
    <path d="M 431.2 181.72  L 248.48 -1  M 181.72 -1  L -1 181.72  M -1 248.48  L 181.72 431.2  M 248.48 431.2  L 431.2 248.48  " clip-path="url(#p8d69a4f42a)" style="fill: none; stroke: #000000; stroke-linecap: square"/>
   </g>
   <g id="line2d_18">
    <path d="M 431.2 171.325  L 258.875 -1  M 171.325 -1  L -1 171.325  M -1 258.875  L 171.325 431.2  M 258.875 431.2  L 431.2 258.875  " clip-path="url(#p8d69a4f42a)" style="fill: none; stroke: #000000; stroke-linecap: square"/>
   </g>
   <g id="line2d_19">
    <path d="M 431.2 160.93  L 269.27 -1  M 160.93 -1  L -1 160.93  M -1 269.27  L 160.93 431.2  M 269.27 431.2  L 431.2 269.27  " clip-path="url(#p8d69a4f42a)" style="fill: none; stroke: #000000; stroke-linecap: square"/>
   </g>
   <g id="line2d_20">
    <path d="M 431.2 150.535  L 279.665 -1  M 150.535 -1  L -1 150.535  M -1 279.665  L 150.535 431.2  M 279.665 431.2  L 431.2 279.665  " clip-path="url(#p8d69a4f42a)" style="fill: none; stroke: #000000; stroke-linecap: square"/>
   </g>
   <g id="line2d_21">
    <path d="M 431.2 140.14  L 290.06 -1  M 140.14 -1  L -1 140.14  M -1 290.06  L 140.14 431.2  M 290.06 431.2  L 431.2 290.06  " clip-path="url(#p8d69a4f42a)" style="fill: none; stroke: #000000; stroke-linecap: square"/>
   </g>
   <g id="line2d_22">
    <path d="M 431.2 129.745  L 300.455 -1  M 129.745 -1  L -1 129.745  M -1 300.455  L 129.745 431.2  M 300.455 431.2  L 431.2 300.455  " clip-path="url(#p8d69a4f42a)" style="fill: none; stroke: #000000; stroke-linecap: square"/>
   </g>
   <g id="line2d_23">
    <path d="M 431.2 119.35  L 310.85 -1  M 119.35 -1  L -1 119.35  M -1 310.85  L 119.35 431.2  M 310.85 431.2  L 431.2 310.85  " clip-path="url(#p8d69a4f42a)" style="fill: none; stroke: #000000; stroke-linecap: square"/>
   </g>
   <g id="line2d_24">
    <path d="M 431.2 108.955  L 321.245 -1  M 108.955 -1  L -1 108.955  M -1 321.245  L 108.955 431.2  M 321.245 431.2  L 431.2 321.245  " clip-path="url(#p8d69a4f42a)" style="fill: none; stroke: #000000; stroke-linecap: square"/>
   </g>
   <g id="line2d_25">
    <path d="M 431.2 98.56  L 331.64 -1  M 98.56 -1  L -1 98.56  M -1 331.64  L 98.56 431.2  M 331.64 431.2  L 431.2 331.64  " clip-path="url(#p8d69a4f42a)" style="fill: none; stroke: #000000; stroke-linecap: square"/>
   </g>
   <g id="line2d_26">
    <path d="M 431.2 88.165  L 342.035 -1  M 88.165 -1  L -1 88.165  M -1 342.035  L 88.165 431.2  M 342.035 431.2  L 431.2 342.035  " clip-path="url(#p8d69a4f42a)" style="fill: none; stroke: #000000; stroke-linecap: square"/>
   </g>
   <g id="line2d_27">
    <path d="M 431.2 77.77  L 352.43 -1  M 77.77 -1  L -1 77.77  M -1 352.43  L 77.77 431.2  M 352.43 431.2  L 431.2 352.43  " clip-path="url(#p8d69a4f42a)" style="fill: none; stroke: #000000; stroke-linecap: square"/>
   </g>
   <g id="line2d_28">
    <path d="M 431.2 67.375  L 362.825 -1  M 67.375 -1  L -1 67.375  M -1 362.825  L 67.375 431.2  M 362.825 431.2  L 431.2 362.825  " clip-path="url(#p8d69a4f42a)" style="fill: none; stroke: #000000; stroke-linecap: square"/>
   </g>
   <g id="line2d_29">
    <path d="M 431.2 56.98  L 373.22 -1  M 56.98 -1  L -1 56.98  M -1 373.22  L 56.98 431.2  M 373.22 431.2  L 431.2 373.22  " clip-path="url(#p8d69a4f42a)" style="fill: none; stroke: #000000; stroke-linecap: square"/>
   </g>
   <g id="line2d_30">
    <path d="M 431.2 46.585  L 383.615 -1  M 46.585 -1  L -1 46.585  M -1 383.615  L 46.585 431.2  M 383.615 431.2  L 431.2 383.615  " clip-path="url(#p8d69a4f42a)" style="fill: none; stroke: #000000; stroke-linecap: square"/>
   </g>
   <g id="line2d_31">
    <path d="M 431.2 36.19  L 394.01 -1  M 36.19 -1  L -1 36.19  M -1 394.01  L 36.19 431.2  M 394.01 431.2  L 431.2 394.01  " clip-path="url(#p8d69a4f42a)" style="fill: none; stroke: #000000; stroke-linecap: square"/>
   </g>
   <g id="line2d_32">
    <path d="M 431.2 25.795  L 404.405 -1  M 25.795 -1  L -1 25.795  M -1 404.405  L 25.795 431.2  M 404.405 431.2  L 431.2 404.405  " clip-path="url(#p8d69a4f42a)" style="fill: none; stroke: #000000; stroke-linecap: square"/>
   </g>
   <g id="line2d_33">
    <path d="M 431.2 15.4  L 414.8 -1  M 15.4 -1  L -1 15.4  M -1 414.8  L 15.4 431.2  M 414.8 431.2  L 431.2 414.8  " clip-path="url(#p8d69a4f42a)" style="fill: none; stroke: #000000; stroke-linecap: square"/>
   </g>
   <g id="line2d_34">
    <path d="M 431.2 5.005  L 425.195 -1  M 5.005 -1  L -1 5.005  M -1 425.195  L 5.005 431.2  M 425.195 431.2  L 431.2 425.195  " clip-path="url(#p8d69a4f42a)" style="fill: none; stroke: #000000; stroke-linecap: square"/>
   </g>
   <g id="line2d_35">
    <path clip-path="url(#p8d69a4f42a)" style="fill: none; stroke: #000000; stroke-linecap: square"/>
   </g>
   <g id="line2d_36">
    <path clip-path="url(#p8d69a4f42a)" style="fill: none; stroke: #000000; stroke-linecap: square"/>
   </g>
   <g id="line2d_37">
    <path clip-path="url(#p8d69a4f42a)" style="fill: none; stroke: #000000; stroke-linecap: square"/>
   </g>
   <g id="line2d_38">
    <path clip-path="url(#p8d69a4f42a)" style="fill: none; stroke: #000000; stroke-linecap: square"/>
   </g>
   <g id="line2d_39">
    <path clip-path="url(#p8d69a4f42a)" style="fill: none; stroke: #000000; stroke-linecap: square"/>
   </g>
   <g id="line2d_40">
    <path clip-path="url(#p8d69a4f42a)" style="fill: none; stroke: #000000; stroke-linecap: square"/>
   </g>
   <g id="line2d_41">
    <path clip-path="url(#p8d69a4f42a)" style="fill: none; stroke: #000000; stroke-linecap: square"/>
   </g>
   <g id="line2d_42">
    <path clip-path="url(#p8d69a4f42a)" style="fill: none; stroke: #000000; stroke-linecap: square"/>
   </g>
   <g id="line2d_43">
    <path clip-path="url(#p8d69a4f42a)" style="fill: none; stroke: #000000; stroke-linecap: square"/>
   </g>
   <g id="line2d_44">
    <path clip-path="url(#p8d69a4f42a)" style="fill: none; stroke: #000000; stroke-linecap: square"/>
   </g>
   <g id="line2d_45">
    <path clip-path="url(#p8d69a4f42a)" style="fill: none; stroke: #000000; stroke-linecap: square"/>
   </g>
   <g id="line2d_46">
    <path clip-path="url(#p8d69a4f42a)" style="fill: none; stroke: #000000; stroke-linecap: square"/>
   </g>
   <g id="line2d_47">
    <path d="M 220.94199 215.1  L 219.979838 210.573432  L 220.436923 212.723849  L 217.716833 208.979965  L 219.009054 210.758555  L 215.001353 208.444708  L 216.905274 209.543937  L 212.302931 209.060212  L 214.489346 209.290013  L 210.088147 210.720049  L 212.179005 210.040688  L 208.739958 213.13722  L 210.373731 211.666164  L 208.491478 215.893774  L 209.385671 213.885382  L 209.385671 218.513077  L 209.385671 216.314618  L 211.267924 220.542227  L 210.373731 218.533836  L 213.812778 221.630368  L 212.179005 220.159312  L 216.580204 221.589348  L 214.489346 220.909987  L 219.091689 220.426261  L 216.905274 220.656063  L 220.912975 218.342215  L 219.009054 219.441445  L 221.729145 215.697561  L 220.436923 217.476151  L 221.399075 212.949583  L 220.94199 215.1  " clip-path="url(#p8d69a4f42a)" style="fill: none; stroke: #ff0000; stroke-linecap: square"/>
   </g>
   <g id="line2d_48">
    <path d="M 218.780123 202.833512  L 208.669538 202.002271  L 213.472729 202.397165  L 203.898154 205.750133  L 208.446706 204.157253  L 201.063672 211.114673  L 204.571097 207.809442  L 200.656197 217.168312  L 202.516032 212.722234  L 202.746188 222.864321  L 202.636849 218.046164  L 206.972265 227.217808  L 204.912658 222.860675  L 212.603701 229.476016  L 208.949951 226.333295  L 218.66677 229.248481  L 214.050643 227.863576  L 224.113112 226.574544  L 219.332779 227.186919  L 228.001005 221.916555  L 223.883029 224.420324  L 229.658197 216.079921  L 226.914613 220.04216  L 228.798145 210.073851  L 227.903344 214.809451  L 225.569559 204.936847  L 226.67826 209.626982  L 220.530691 201.557144  L 223.45119 205.390846  L 214.552807 200.519125  L 218.780123 202.833512  " clip-path="url(#p8d69a4f42a)" style="fill: none; stroke: #ff0000; stroke-linecap: square"/>
   </g>
   <g id="line2d_49">
    <path d="M 198.593981 204.216286  L 192.87939 218.798202  L 195.594196 211.870835  L 196.304657 227.516412  L 195.967141 220.083736  L 202.97981 234.087712  L 199.648332 227.434904  L 211.750653 237.375863  L 206.001257 232.653255  L 221.100629 236.812316  L 213.927436 234.836489  L 229.413042 232.494511  L 222.056363 233.607105  L 235.2506 225.169038  L 228.982472 229.177673  L 237.603936 216.102537  L 233.508175 222.314085  L 236.066137 206.862688  L 234.850937 214.203115  L 230.903102 199.047145  L 232.778583 206.247225  L 223.007568 194.007286  L 227.649441 199.82206  L 213.744743 192.61455  L 220.350387 196.03859  L 204.716255 195.109752  L 212.143493 195.551011  L 197.48321 201.061449  L 204.447807 198.443629  L 193.296268 209.44054  L 198.593981 204.216286  " clip-path="url(#p8d69a4f42a)" style="fill: none; stroke: #ff0000; stroke-linecap: square"/>
   </g>
   <g id="line2d_50">
    <path d="M 194.589119 232.249759  L 211.255381 245.317778  L 203.337813 239.109611  L 223.878443 244.269061  L 214.120296 241.817984  L 234.983633 238.176749  L 225.072179 239.906574  L 242.650762 228.094257  L 234.299782 233.705883  L 245.554114 215.76494  L 240.207568 224.288065  L 243.191673 203.320649  L 241.774027 213.281547  L 235.971926 192.913114  L 238.728305 202.589457  L 225.143234 186.341894  L 231.597034 194.060552  L 212.577976 184.743212  L 221.613276 189.16956  L 200.448798 188.393494  L 210.503314 188.762176  L 190.852946 196.661573  L 200.18816 192.908841  L 185.44963 208.117824  L 192.451399 200.892559  L 185.173133 220.781357  L 188.630787 211.332873  L 190.071262 232.462531  L 189.386942 222.424557  L 199.297088 241.141566  L 194.589119 232.249759  " clip-path="url(#p8d69a4f42a)" style="fill: none; stroke: #ff0000; stroke-linecap: square"/>
   </g>
   <g id="line2d_51">
    <path d="M 228.376075 246.075403  L 250.190334 230.687136  L 239.827129 237.997573  L 253.496474 215.067033  L 247.002639 225.960544  L 250.163516 199.45263  L 248.661892 212.045629  L 240.767757 186.543799  L 244.517989 198.658842  L 226.93381 178.572595  L 235.287449 188.11488  L 211.053689 176.917311  L 222.566315 182.236891  L 195.873213 181.864161  L 208.554188 182.041233  L 184.017222 192.557789  L 195.673891 187.561735  L 177.535726 207.149171  L 186.152545 197.843853  L 177.549435 223.115322  L 181.636477 211.109716  L 184.055977 237.695552  L 182.906556 225.065536  L 195.930313 248.368806  L 189.743174 237.298223  L 211.119262 253.289581  L 200.964217 245.692637  L 226.996517 251.60703  L 214.629466 248.797305  L 240.816755 243.612082  L 228.376075 246.075403  " clip-path="url(#p8d69a4f42a)" style="fill: none; stroke: #ff0000; stroke-linecap: square"/>
   </g>
   <g id="line2d_52">
    <path d="M 255.503838 210.496564  L 245.282596 179.948492  L 250.138357 194.460831  L 228.375767 170.711132  L 238.714425 181.993797  L 209.173437 169.14901  L 223.207345 175.251127  L 190.995864 175.532232  L 206.298431 175.398689  L 176.986115 188.757081  L 190.911389 182.410968  L 169.566603 206.536859  L 179.706777 195.075478  L 170.020229 225.797283  L 174.621975 211.202409  L 178.268557 243.208049  L 176.536191 228.00327  L 192.885376 255.758678  L 185.11844 242.573038  L 211.343305 261.279052  L 198.884773 252.392468  L 230.450801 258.814649  L 215.454867 255.763692  L 246.904004 248.791586  L 231.9636 252.103793  L 257.858006 232.942941  L 245.556464 242.045603  L 261.41876 214.00909  L 253.883129 227.328274  L 256.97058 195.263867  L 255.503838 210.496564  " clip-path="url(#p8d69a4f42a)" style="fill: none; stroke: #ff0000; stroke-linecap: square"/>
   </g>
   <g id="line2d_53">
    <path d="M 223.534527 168.222871  L 185.823434 169.40799  L 203.738678 168.844981  L 169.769912 185.266124  L 185.907304 177.465004  L 161.554373 206.282806  L 173.123614 192.592459  L 162.59736 228.824061  L 167.598021 211.611673  L 172.71853 248.992301  L 170.285952 231.23405  L 190.167842 263.300255  L 180.72264 248.066703  L 211.92815 269.273946  L 197.103485 259.199114  L 234.2369 265.88047  L 216.596091 262.706388  L 253.236706 253.706589  L 235.830009 257.982084  L 265.642329 234.857279  L 251.479521 245.843079  L 269.308724 212.591755  L 260.838683 228.388316  L 263.601939 190.75993  L 262.289211 208.635882  L 249.508727 173.136724  L 255.580295 190.001153  L 229.465934 162.769349  L 241.871969 175.706243  L 206.939141 161.45042  L 223.534527 168.222871  " clip-path="url(#p8d69a4f42a)" style="fill: none; stroke: #ff0000; stroke-linecap: square"/>
   </g>
   <g id="line2d_54">
    <path d="M 166.412724 190.399535  L 155.292576 232.192123  L 160.575376 212.337902  L 167.415193 255.040303  L 164.165831 234.75386  L 187.782945 270.98244  L 176.563266 253.771488  L 212.874065 277.261997  L 195.624053 266.102464  L 238.350069 272.793179  L 218.052408 269.61465  L 259.805925 258.348687  L 239.970265 263.700759  L 273.53172 236.426103  L 257.587827 249.383354  L 277.15414 210.816043  L 267.858858 229.138047  L 270.046836 185.946718  L 269.007403 206.465433  L 253.438724 166.11826  L 260.834868 185.285815  L 230.201499 154.75919  L 244.754359 169.26134  L 204.353087 153.833594  L 223.546342 161.162786  L 180.362914 163.501516  L 200.877876 162.390466  L 162.379099 182.091285  L 180.668544 172.732103  L 153.511207 206.388561  L 166.412724 190.399535  " clip-path="url(#p8d69a4f42a)" style="fill: none; stroke: #ff0000; stroke-linecap: square"/>
   </g>
   <g id="line2d_55">
    <path d="M 172.647579 259.679433  L 214.180949 285.230932  L 194.449873 273.092294  L 242.785225 279.541607  L 219.822761 276.47776  L 266.602474 262.709742  L 244.379041 269.250454  L 281.514478 237.64572  L 263.872709 252.660042  L 284.942815 208.683338  L 274.933132 229.575158  L 276.294695 180.830455  L 275.647863 203.987388  L 257.065456 158.903089  L 265.893319 180.321089  L 230.580008 146.692678  L 247.356148 162.66838  L 201.417927 146.310515  L 223.241596 154.081574  L 174.6216 157.822679  L 197.719289 156.045409  L 154.824356 179.238612  L 175.202264 168.220319  L 145.449319 206.855305  L 159.58392 188.501151  L 148.117517 235.89758  L 153.564811 213.381167  L 162.367595 261.343765  L 158.185695 238.558384  L 185.735585 278.793983  L 172.647579 259.679433  " clip-path="url(#p8d69a4f42a)" style="fill: none; stroke: #ff0000; stroke-linecap: square"/>
   </g>
   <g id="line2d_56">
    <path d="M 249.050731 274.621967  L 289.578787 238.512786  L 270.325301 255.667016  L 292.662595 206.195393  L 282.050915 229.69766  L 282.335126 175.417687  L 282.200107 201.204236  L 260.382094 151.501413  L 270.747082 175.113515  L 230.599375 138.581913  L 249.67217 155.936821  L 198.136674 138.893086  L 222.619416 146.989979  L 168.607086 152.381126  L 194.266487 149.819977  L 147.116545 176.713829  L 169.515862 163.937485  L 137.380962 207.68385  L 152.647148 186.901456  L 141.083706 239.936191  L 146.577099 214.741212  L 157.584539 267.894128  L 152.355283 242.643005  L 184.030319 286.723482  L 168.982598 265.782363  L 215.848328 293.168484  L 193.584031 280.15828  L 247.536945 286.114737  L 221.905771 283.285029  L 273.616919 266.781896  L 249.050731 274.621967  " clip-path="url(#p8d69a4f42a)" style="fill: none; stroke: #ff0000; stroke-linecap: square"/>
   </g>
   <g id="line2d_57">
    <path d="M 288.653725 198.118785  L 263.382116 143.923645  L 275.387789 169.669893  L 230.257877 130.439059  L 251.697546 149.076279  L 194.512702 131.593118  L 221.679255 139.898766  L 162.327259 147.186275  L 190.523352 143.72423  L 139.266702 174.522333  L 163.616974 159.891213  L 129.318411 208.874638  L 145.612479 185.604297  L 134.202536 244.303364  L 139.623007 216.417456  L 153.074567 274.682564  L 146.684194 247.002814  L 182.67136 294.759397  L 165.575095 272.071887  L 217.875359 301.062396  L 193.029301 287.290002  L 252.599473 292.501717  L 224.299733 290.02581  L 280.839588 270.557577  L 253.979447 279.806265  L 297.71273 239.024318  L 276.936551 258.398419  L 300.301381 203.354328  L 289.201554 229.503883  L 288.15794 169.715271  L 288.653725 198.118785  " clip-path="url(#p8d69a4f42a)" style="fill: none; stroke: #ff0000; stroke-linecap: square"/>
   </g>
   <g id="line2d_58">
    <path d="M 220.420891 132.818724  L 155.790289 142.247309  L 186.494066 137.768112  L 131.286024 172.669188  L 157.513467 156.088887  L 121.273957 210.427739  L 138.490102 184.613219  L 127.485265 248.994167  L 132.713285 218.408992  L 148.845957 281.699986  L 141.181879 251.632611  L 181.662574 302.890062  L 162.431588 278.539409  L 220.260827 308.900438  L 192.788144 294.476957  L 257.966725 298.691867  L 227.002622 296.689508  L 288.260577 274.029503  L 259.159029 284.794492  L 305.904301 239.177692  L 283.69723 260.848665  L 307.847137 200.162629  L 296.374346 228.992478  L 293.753149 163.730374  L 294.99839 194.734156  L 266.059318 136.180394  L 279.807276 163.997273  L 229.554158 122.27633  L 253.427686 142.096515  L 190.549742 124.422322  L 220.420891 132.818724  " clip-path="url(#p8d69a4f42a)" style="fill: none; stroke: #ff0000; stroke-linecap: square"/>
   </g>
   <g id="line2d_59">
    <path d="M 131.290316 183.931458  L 120.943003 254.003324  L 125.858656 220.714589  L 144.90671 288.937055  L 135.857634 256.526908  L 181.007475 311.10369  L 159.558338 285.176137  L 223.003147 316.670414  L 192.8627 301.708566  L 263.632293 304.67469  L 230.012093 303.265587  L 295.869765 277.19069  L 264.583049 289.577977  L 314.141411 238.970644  L 290.597937 263.012448  L 315.287896 196.623148  L 303.558546 228.162422  L 299.110985 157.470467  L 301.223868 191.053784  L 268.407811 128.282456  L 283.997591 158.102956  L 228.487232 114.105987  L 254.858295 135.007434  L 186.251879 117.3923  L 218.844428 125.760645  L 149.004628 137.573163  L 182.183116 131.961441  L 123.185868 171.159119  L 151.213432 152.53765  L 113.259896 212.342854  L 131.290316 183.931458  " clip-path="url(#p8d69a4f42a)" style="fill: none; stroke: #ff0000; stroke-linecap: square"/>
   </g>
   <g id="line2d_60">
    <path d="M 156.961342 291.973085  L 226.100368 324.360171  L 193.254794 308.97418  L 269.589451 310.439881  L 233.32548 309.743577  L 303.656814 280.034458  L 270.244815 294.148239  L 322.411898 238.401278  L 297.629111 264.884743  L 322.611781 192.739096  L 310.743373 227.013012  L 304.2219 150.943316  L 307.320028 187.081413  L 270.422033 120.240811  L 287.951002 151.994483  L 227.056484 105.940321  L 255.985375 127.81907  L 181.62355 110.514531  L 216.950296 118.735322  L 141.978998 133.172519  L 177.595284 126.313903  L 114.977732 169.996512  L 144.725178 149.244407  L 105.288516 214.619309  L 124.023518 183.56194  L 114.586703 259.325221  L 119.069809 223.332691  L 141.264552 296.384191  L 130.720593 261.679935  L 180.709221 319.388386  L 156.961342 291.973085  " clip-path="url(#p8d69a4f42a)" style="fill: none; stroke: #ff0000; stroke-linecap: square"/>
   </g>
   <g id="line2d_61">
    <path d="M 276.137377 298.497  L 330.703544 237.468063  L 304.781034 266.460813  L 329.807004 188.514045  L 317.918026 225.543874  L 309.07658 144.15698  L 313.276847 182.821095  L 272.096752 112.066608  L 291.659999 145.679632  L 225.261668 97.791645  L 256.805232 120.541581  L 176.669539 103.800362  L 214.739251 111.75354  L 134.722386 129.053798  L 172.735647 120.83504  L 106.673252 169.185404  L 138.057225 146.215809  L 97.372089 217.256061  L 116.700198 183.50728  L 108.42715 264.953915  L 112.357391 226.261419  L 137.926917 304.031575  L 125.779714 267.085648  L 180.770611 327.732157  L 154.646327 298.921085  L 229.550168 331.957616  L 193.965928 316.263096  L 275.831159 315.977331  L 236.939803 316.113088  L 311.611182 282.55444  L 276.137377 298.497  " clip-path="url(#p8d69a4f42a)" style="fill: none; stroke: #ff0000; stroke-linecap: square"/>
   </g>
   <g id="line2d_62">
    <path d="M 319.084423 178.277185  L 273.427071 103.771157  L 295.117309 139.166409  L 223.102911 89.672284  L 257.314475 113.185241  L 171.394975 97.261003  L 212.212375 104.826061  L 127.244035 125.225155  L 167.609572 115.534247  L 98.284189 168.729484  L 131.218295 143.458256  L 89.522859 220.251696  L 109.330927 183.769773  L 102.474957 270.883134  L 105.731992 229.498571  L 134.900948 311.869161  L 121.04378 272.737726  L 181.194084 336.12292  L 152.618742 306.010794  L 233.34986 339.450718  L 194.997282 323.56456  L 282.350071 321.277146  L 240.851764 322.363818  L 319.722133 284.744582  L 282.253532 302.616187  L 339.004078 236.169836  L 312.043845 267.736213  L 336.861882 183.951925  L 325.071686 223.754959  L 313.66595 137.119798  L 319.084423 178.277185  " clip-path="url(#p8d69a4f42a)" style="fill: none; stroke: #ff0000; stroke-linecap: square"/>
   </g>
   <g id="line2d_63">
    <path d="M 209.371075 97.963622  L 119.553439 121.694465  L 162.22271 110.420757  L 89.822419 168.632085  L 124.217308 140.977885  L 81.753032 223.60443  L 101.926349 184.3514  L 96.740546 277.106282  L 99.204143 233.041627  L 132.193486 319.886684  L 116.521383 278.629583  L 181.981715 344.548517  L 150.883762 313.232698  L 237.496396 346.827525  L 196.349711 330.867778  L 289.138537 326.329647  L 245.057756 328.485557  L 327.978742 286.599153  L 288.585833 306.497943  L 347.301188 234.505806  L 319.407541 268.706795  L 343.764847 179.057018  L 332.193528 221.646545  L 317.981185 129.84039  L 324.732981 173.454337  L 274.408431 95.365923  L 298.315894 132.463044  L 220.580711 81.594565  L 257.510024 105.76043  L 165.805327 90.90751  L 209.371075 97.963622  " clip-path="url(#p8d69a4f42a)" style="fill: none; stroke: #ff0000; stroke-linecap: square"/>
   </g>
   <g id="line2d_64">
    <path d="M 94.497175 185.253818  L 91.23415 283.616448  L 92.784301 236.887744  L 129.811066 328.073669  L 112.220923 284.754372  L 183.135212 352.996717  L 149.446272 320.577125  L 241.986361 354.07617  L 198.023747 338.161926  L 296.188614 331.125381  L 249.553861 334.468201  L 336.369909 288.112749  L 295.12659 310.13463  L 355.582535 232.475549  L 326.861994 269.368708  L 350.504454 173.833959  L 339.272734 219.219234  L 322.013713 122.327643  L 330.212881 168.357506  L 275.03662 86.86251  L 301.248964 125.577981  L 217.695941 73.570804  L 257.389109 98.277625  L 159.906399 84.750781  L 206.217083 91.17692  L 111.660333 118.469323  L 156.580994 105.503641  L 81.299925 168.896187  L 117.063373 138.780568  L 74.074766 227.31211  L 94.497175 185.253818  " clip-path="url(#p8d69a4f42a)" style="fill: none; stroke: #ff0000; stroke-linecap: square"/>
   </g>
   <g id="line2d_65">
    <path d="M 148.31087 328.034252  L 246.815985 361.184885  L 200.019592 345.436159  L 303.49207 335.65513  L 254.335853 340.301761  L 344.884363 289.280298  L 301.86788 313.51884  L 363.835761 230.079018  L 334.396951 269.718409  L 357.069394 168.28773  L 346.298496 216.473958  L 325.755229 114.590708  L 335.514629 162.991937  L 275.30777 78.272657  L 303.909979 118.519874  L 214.449841 65.613296  L 256.949276 90.747392  L 153.70433 78.801544  L 202.752454 84.476605  L 103.574688 115.557033  L 150.690634 100.791791  L 72.728785 169.524406  L 109.765779 136.871904  L 66.50016 231.372213  L 87.054168 186.478365  L 85.965796 290.406407  L 86.482844 241.033768  L 127.75991 336.419438  L 108.150595 291.104986  L 184.655918 361.455237  L 148.31087 328.034252  " clip-path="url(#p8d69a4f42a)" style="fill: none; stroke: #ff0000; stroke-linecap: square"/>
   </g>
   <g id="line2d_66">
    <path d="M 308.801552 316.643399  L 372.048498 227.316534  L 342.002049 269.752657  L 363.4485 162.423654  L 353.260028 213.411973  L 329.197698 106.638993  L 340.628884 157.363164  L 275.218368 69.608225  L 306.292655 111.297579  L 210.844025 57.734307  L 256.188387 83.180376  L 147.20558 73.070346  L 198.979565 77.873274  L 95.306696 112.964604  L 144.558111 96.293919  L 64.121163 170.518999  L 102.333992 135.257216  L 59.041243 235.781854  L 79.608139 188.026055  L 80.945299 297.468629  L 80.31006 245.476225  L 126.045922 344.913119  L 104.318387 297.67407  L 186.544804 369.911742  L 147.48186 335.594108  L 251.981139 368.142009  L 202.337125 352.67962  L 311.04039 339.909921  L 259.399206 345.976366  L 353.510676 290.097065  L 308.801552 316.643399  " clip-path="url(#p8d69a4f42a)" style="fill: none; stroke: #ff0000; stroke-linecap: square"/>
   </g>
   <g id="line2d_67">
    <path d="M 345.546465 151.477008  L 274.765253 60.881189  L 308.390973 103.920147  L 206.88048 49.94606  L 255.104625 75.587293  L 140.416935 67.567549  L 194.901113 71.377454  L 86.866772 110.698738  L 138.190173 92.018548  L 55.489298 171.881854  L 94.77764 133.941544  L 51.709965 240.537781  L 72.169937 189.897573  L 76.182253 304.795283  L 74.276139 250.211332  L 124.674682 353.543657  L 100.732067 304.454022  L 188.802469 378.353864  L 146.963249 343.24659  L 257.477339 374.935995  L 204.975895 359.881448  L 318.824782 343.881031  L 264.73909 351.482279  L 362.237267 290.558656  L 315.919236 319.501375  L 380.208383 224.188794  L 349.666819 269.468524  L 369.630759 156.247398  L 360.146578 210.034862  L 332.333363 98.48215  L 345.546465 151.477008  " clip-path="url(#p8d69a4f42a)" style="fill: none; stroke: #ff0000; stroke-linecap: square"/>
   </g>
  </g>
 </g>
 <defs>
  <clipPath id="p8d69a4f42a">
   
  </clipPath>
 </defs>
</svg>