<?xml version="1.0" ?><!DOCTYPE svg  PUBLIC '-//W3C//DTD SVG 1.1//EN'  'http://www.w3.org/Graphics/SVG/1.1/DTD/svg11.dtd'><svg xmlns:xlink="http://www.w3.org/1999/xlink" xmlns="http://www.w3.org/2000/svg" width="430.2pt" height="430.2pt" viewBox="0 0 430.2 430.2" version="1.1">
 <metadata>
  <rdf:RDF xmlns:dc="http://purl.org/dc/elements/1.1/" xmlns:cc="http://creativecommons.org/ns#" xmlns:rdf="http://www.w3.org/1999/02/22-rdf-syntax-ns#">
   <cc:Work>
    <dc:type rdf:resource="http://purl.org/dc/dcmitype/StillImage"/>
    <dc:date>2024-10-29T16:52:18.193008</dc:date>
    <dc:format>image/svg+xml</dc:format>
    <dc:creator>
     <cc:Agent>
      <dc:title>Matplotlib v3.9.2, https://matplotlib.org/</dc:title>
     </cc:Agent>
    </dc:creator>
   </cc:Work>
  </rdf:RDF>
 </metadata>
 <defs>
  <style type="text/css">*{stroke-linejoin: round; stroke-linecap: butt}</style>
 </defs>
 <g id="figure_1">
  <g id="patch_1">
   <path d="M 0 430.2  L 430.2 430.2  L 430.2 0  L 0 0  z " style="fill: #ffffff"/>
  </g>
  <g id="axes_1">
   <g id="line2d_1">
    <path d="M 141.46182 304.03962  L 134.662461 299.970019  L 134.696289 299.990266  L 134.322317 307.905636  L 141.46182 304.03962  " clip-path="url(#p9c65eaa8c2)" style="fill: none; stroke: #0000ff; stroke-linecap: square"/>
   </g>
   <g id="line2d_2">
    <path d="M 151.85682 304.03962  L 129.674296 290.762777  L 129.784656 290.828831  L 128.564595 316.652277  L 151.85682 304.03962  " clip-path="url(#p9c65eaa8c2)" style="fill: none; stroke: #0000ff; stroke-linecap: square"/>
   </g>
   <g id="line2d_3">
    <path d="M 162.25182 304.03962  L 124.68613 281.555534  L 124.873024 281.667395  L 122.806873 325.398919  L 162.25182 304.03962  " clip-path="url(#p9c65eaa8c2)" style="fill: none; stroke: #0000ff; stroke-linecap: square"/>
   </g>
   <g id="line2d_4">
    <path d="M 172.64682 304.03962  L 119.697965 272.348292  L 119.961392 272.50596  L 117.049151 334.145561  L 172.64682 304.03962  " clip-path="url(#p9c65eaa8c2)" style="fill: none; stroke: #0000ff; stroke-linecap: square"/>
   </g>
   <g id="line2d_5">
    <path d="M 183.04182 304.03962  L 114.709799 263.14105  L 115.04976 263.344525  L 111.291429 342.892203  L 183.04182 304.03962  " clip-path="url(#p9c65eaa8c2)" style="fill: none; stroke: #0000ff; stroke-linecap: square"/>
   </g>
   <g id="line2d_6">
    <path d="M 193.43682 304.03962  L 109.721634 253.933807  L 110.138127 254.18309  L 105.533707 351.638845  L 193.43682 304.03962  " clip-path="url(#p9c65eaa8c2)" style="fill: none; stroke: #0000ff; stroke-linecap: square"/>
   </g>
   <g id="line2d_7">
    <path d="M 203.83182 304.03962  L 104.733469 244.726565  L 105.226495 245.021655  L 99.775985 360.385487  L 203.83182 304.03962  " clip-path="url(#p9c65eaa8c2)" style="fill: none; stroke: #0000ff; stroke-linecap: square"/>
   </g>
   <g id="line2d_8">
    <path d="M 214.22682 304.03962  L 99.745303 235.519323  L 100.314863 235.86022  L 94.018263 369.132128  L 214.22682 304.03962  " clip-path="url(#p9c65eaa8c2)" style="fill: none; stroke: #0000ff; stroke-linecap: square"/>
   </g>
   <g id="line2d_9">
    <path d="M 224.62182 304.03962  L 94.757138 226.31208  L 95.403231 226.698784  L 88.260541 377.87877  L 224.62182 304.03962  " clip-path="url(#p9c65eaa8c2)" style="fill: none; stroke: #0000ff; stroke-linecap: square"/>
   </g>
   <g id="line2d_10">
    <path d="M 235.01682 304.03962  L 89.768972 217.104838  L 90.491599 217.537349  L 82.502819 386.625412  L 235.01682 304.03962  " clip-path="url(#p9c65eaa8c2)" style="fill: none; stroke: #0000ff; stroke-linecap: square"/>
   </g>
   <g id="line2d_11">
    <path d="M 245.41182 304.03962  L 84.780807 207.897596  L 85.579966 208.375914  L 76.745097 395.372054  L 245.41182 304.03962  " clip-path="url(#p9c65eaa8c2)" style="fill: none; stroke: #0000ff; stroke-linecap: square"/>
   </g>
   <g id="line2d_12">
    <path d="M 255.80682 304.03962  L 79.792642 198.690353  L 80.668334 199.214479  L 70.987375 404.118696  L 255.80682 304.03962  " clip-path="url(#p9c65eaa8c2)" style="fill: none; stroke: #0000ff; stroke-linecap: square"/>
   </g>
   <g id="line2d_13">
    <path d="M 266.20182 304.03962  L 74.804476 189.483111  L 75.756702 190.053044  L 65.229654 412.865337  L 266.20182 304.03962  " clip-path="url(#p9c65eaa8c2)" style="fill: none; stroke: #0000ff; stroke-linecap: square"/>
   </g>
   <g id="line2d_14">
    <path d="M 276.59682 304.03962  L 69.816311 180.275869  L 70.84507 180.891609  L 59.471932 421.611979  L 276.59682 304.03962  " clip-path="url(#p9c65eaa8c2)" style="fill: none; stroke: #0000ff; stroke-linecap: square"/>
   </g>
   <g id="line2d_15">
    <path d="M 286.99182 304.03962  L 64.828146 171.068626  L 65.933438 171.730174  L 53.71421 430.358621  L 286.99182 304.03962  " clip-path="url(#p9c65eaa8c2)" style="fill: none; stroke: #0000ff; stroke-linecap: square"/>
   </g>
   <g id="line2d_16">
    <path d="M 297.38682 304.03962  L 59.83998 161.861384  L 61.021805 162.568738  L 48.329982 431.2  M 62.555406 431.2  L 297.38682 304.03962  " clip-path="url(#p9c65eaa8c2)" style="fill: none; stroke: #0000ff; stroke-linecap: square"/>
   </g>
   <g id="line2d_17">
    <path d="M 307.78182 304.03962  L 54.851815 152.654142  L 56.110173 153.407303  L 42.985506 431.2  M 72.950406 431.2  L 307.78182 304.03962  " clip-path="url(#p9c65eaa8c2)" style="fill: none; stroke: #0000ff; stroke-linecap: square"/>
   </g>
   <g id="line2d_18">
    <path d="M 318.17682 304.03962  L 49.863649 143.446899  L 51.198541 144.245868  L 37.64103 431.2  M 83.345406 431.2  L 318.17682 304.03962  " clip-path="url(#p9c65eaa8c2)" style="fill: none; stroke: #0000ff; stroke-linecap: square"/>
   </g>
   <g id="line2d_19">
    <path d="M 328.57182 304.03962  L 44.875484 134.239657  L 46.286909 135.084433  L 32.296554 431.2  M 93.740406 431.2  L 328.57182 304.03962  " clip-path="url(#p9c65eaa8c2)" style="fill: none; stroke: #0000ff; stroke-linecap: square"/>
   </g>
   <g id="line2d_20">
    <path d="M 338.96682 304.03962  L 39.887319 125.032415  L 41.375276 125.922998  L 26.952079 431.2  M 104.135406 431.2  L 338.96682 304.03962  " clip-path="url(#p9c65eaa8c2)" style="fill: none; stroke: #0000ff; stroke-linecap: square"/>
   </g>
   <g id="line2d_21">
    <path d="M 349.36182 304.03962  L 34.899153 115.825172  L 36.463644 116.761563  L 21.607603 431.2  M 114.530406 431.2  L 349.36182 304.03962  " clip-path="url(#p9c65eaa8c2)" style="fill: none; stroke: #0000ff; stroke-linecap: square"/>
   </g>
   <g id="line2d_22">
    <path d="M 359.75682 304.03962  L 29.910988 106.61793  L 31.552012 107.600128  L 16.263127 431.2  M 124.925406 431.2  L 359.75682 304.03962  " clip-path="url(#p9c65eaa8c2)" style="fill: none; stroke: #0000ff; stroke-linecap: square"/>
   </g>
   <g id="line2d_23">
    <path d="M 370.15182 304.03962  L 24.922823 97.410688  L 26.64038 98.438692  L 10.918651 431.2  M 135.320406 431.2  L 370.15182 304.03962  " clip-path="url(#p9c65eaa8c2)" style="fill: none; stroke: #0000ff; stroke-linecap: square"/>
   </g>
   <g id="line2d_24">
    <path d="M 380.54682 304.03962  L 19.934657 88.203445  L 21.728748 89.277257  L 5.574175 431.2  M 145.715406 431.2  L 380.54682 304.03962  " clip-path="url(#p9c65eaa8c2)" style="fill: none; stroke: #0000ff; stroke-linecap: square"/>
   </g>
   <g id="line2d_25">
    <path d="M 390.94182 304.03962  L 14.946492 78.996203  L 16.817115 80.115822  L 0.2297 431.2  M 156.110406 431.2  L 390.94182 304.03962  " clip-path="url(#p9c65eaa8c2)" style="fill: none; stroke: #0000ff; stroke-linecap: square"/>
   </g>
   <g id="line2d_26">
    <path d="M 401.33682 304.03962  L 9.958326 69.788961  L 11.905483 70.954387  L -1 344.107904  M 166.505406 431.2  L 401.33682 304.03962  " clip-path="url(#p9c65eaa8c2)" style="fill: none; stroke: #0000ff; stroke-linecap: square"/>
   </g>
   <g id="line2d_27">
    <path d="M 411.73182 304.03962  L 4.970161 60.581719  L 6.993851 61.792952  L -1 230.98836  M 176.900406 431.2  L 411.73182 304.03962  " clip-path="url(#p9c65eaa8c2)" style="fill: none; stroke: #0000ff; stroke-linecap: square"/>
   </g>
   <g id="line2d_28">
    <path d="M 422.12682 304.03962  L -0.018004 51.374476  L 2.082219 52.631517  L -1 117.868816  M 187.295406 431.2  L 422.12682 304.03962  " clip-path="url(#p9c65eaa8c2)" style="fill: none; stroke: #0000ff; stroke-linecap: square"/>
   </g>
   <g id="line2d_29">
    <path d="M 431.2 303.248475  L -1 44.565035  M 197.690406 431.2  L 431.2 304.755381  " clip-path="url(#p9c65eaa8c2)" style="fill: none; stroke: #0000ff; stroke-linecap: square"/>
   </g>
  </g>
 </g>
 <defs>
  <clipPath id="p9c65eaa8c2">
   
  </clipPath>
 </defs>
</svg>