<?xml version="1.0" ?><!DOCTYPE svg  PUBLIC '-//W3C//DTD SVG 1.1//EN'  'http://www.w3.org/Graphics/SVG/1.1/DTD/svg11.dtd'><svg xmlns:xlink="http://www.w3.org/1999/xlink" xmlns="http://www.w3.org/2000/svg" width="432.9pt" height="349.2pt" viewBox="0 0 432.9 349.2" version="1.1">
 <metadata>
  <rdf:RDF xmlns:dc="http://purl.org/dc/elements/1.1/" xmlns:cc="http://creativecommons.org/ns#" xmlns:rdf="http://www.w3.org/1999/02/22-rdf-syntax-ns#">
   <cc:Work>
    <dc:type rdf:resource="http://purl.org/dc/dcmitype/StillImage"/>
    <dc:date>2024-11-01T16:44:24.705782</dc:date>
    <dc:format>image/svg+xml</dc:format>
    <dc:creator>
     <cc:Agent>
      <dc:title>Matplotlib v3.9.2, https://matplotlib.org/</dc:title>
     </cc:Agent>
    </dc:creator>
   </cc:Work>
  </rdf:RDF>
 </metadata>
 <defs>
  <style type="text/css">*{stroke-linejoin: round; stroke-linecap: butt}</style>
 </defs>
 <g id="figure_1">
  <g id="patch_1">
   <path d="M 0 349.2  L 432.9 349.2  L 432.9 0  L 0 0  z " style="fill: #ffffff"/>
  </g>
  <g id="axes_1">
   <g id="line2d_1">
    <path d="M 235.837012 210.193425  L 235.545374 209.283878  L 235.641937 209.585032  L 234.875775 209.01466  L 235.129454 209.203512  L 234.174474 209.185009  L 234.490671 209.191135  L 233.70299 209.731401  L 235.837012 210.193425  " clip-path="url(#p5cdbb883c4)" style="fill: none; stroke: #008000; stroke-linecap: square"/>
   </g>
   <g id="line2d_2">
    <path d="M 237.73063 210.169822  L 236.890633 207.620656  L 237.168759 208.464694  L 235.003046 206.879284  L 235.720122 207.404219  L 233.036298 207.373771  L 233.924922 207.383852  L 231.723798 208.91972  L 237.73063 210.169822  " clip-path="url(#p5cdbb883c4)" style="fill: none; stroke: #008000; stroke-linecap: square"/>
   </g>
   <g id="line2d_3">
    <path d="M 239.623814 210.115814  L 238.209148 205.935882  L 238.677549 207.319873  L 235.096027 204.741926  L 236.281882 205.595493  L 231.869072 205.58086  L 233.33017 205.585705  L 229.731629 208.139842  L 239.623814 210.115814  " clip-path="url(#p5cdbb883c4)" style="fill: none; stroke: #008000; stroke-linecap: square"/>
   </g>
   <g id="line2d_4">
    <path d="M 241.516199 210.031408  L 239.50066 204.229878  L 240.168012 206.150786  L 235.154695 202.602999  L 236.814623 203.777684  L 230.673018 203.806626  L 232.706526 203.797043  L 227.726868 207.391922  L 241.516199 210.031408  " clip-path="url(#p5cdbb883c4)" style="fill: none; stroke: #008000; stroke-linecap: square"/>
   </g>
   <g id="line2d_5">
    <path d="M 243.407417 209.916614  L 240.764913 202.502971  L 241.639856 204.957655  L 235.179031 200.462916  L 237.318234 201.951141  L 229.448362 202.051415  L 232.054106 202.018214  L 225.7099 206.67611  L 243.407417 209.916614  " clip-path="url(#p5cdbb883c4)" style="fill: none; stroke: #008000; stroke-linecap: square"/>
   </g>
   <g id="line2d_6">
    <path d="M 245.297104 209.771447  L 242.001657 200.755488  L 243.092791 203.740705  L 235.169023 198.322091  L 237.792612 200.116214  L 228.195333 200.315572  L 231.373028 200.249564  L 223.681112 205.992553  L 245.297104 209.771447  " clip-path="url(#p5cdbb883c4)" style="fill: none; stroke: #008000; stroke-linecap: square"/>
   </g>
   <g id="line2d_7">
    <path d="M 247.184894 209.595924  L 243.210643 198.98776  L 244.526532 202.500162  L 235.12466 196.180937  L 238.237654 198.273256  L 226.914165 198.599439  L 230.663414 198.491439  L 221.640892 205.341395  L 247.184894 209.595924  " clip-path="url(#p5cdbb883c4)" style="fill: none; stroke: #008000; stroke-linecap: square"/>
   </g>
   <g id="line2d_8">
    <path d="M 249.07042 209.390068  L 244.391626 197.200122  L 245.940792 201.236258  L 235.045937 194.039869  L 238.653264 196.42262  L 225.605092 196.903355  L 229.92539 196.744182  L 219.589629 204.722773  L 249.07042 209.390068  " clip-path="url(#p5cdbb883c4)" style="fill: none; stroke: #008000; stroke-linecap: square"/>
   </g>
   <g id="line2d_9">
    <path d="M 250.953318 209.153905  L 245.544367 195.39291  L 247.335291 199.949226  L 234.932856 191.899299  L 239.039348 194.564659  L 224.268357 195.227656  L 229.159086 195.008135  L 217.527715 204.136822  L 250.953318 209.153905  " clip-path="url(#p5cdbb883c4)" style="fill: none; stroke: #008000; stroke-linecap: square"/>
   </g>
   <g id="line2d_10">
    <path d="M 252.833222 208.887464  L 246.668627 193.566462  L 248.709747 198.639302  L 234.785419 189.759641  L 239.395815 192.69973  L 222.904203 193.572677  L 228.364636 193.283641  L 215.455543 203.583672  L 252.833222 208.887464  " clip-path="url(#p5cdbb883c4)" style="fill: none; stroke: #008000; stroke-linecap: square"/>
   </g>
   <g id="line2d_11">
    <path d="M 254.709769 208.59078  L 247.764174 191.721121  L 250.063886 197.306727  L 234.603635 187.62131  L 239.722581 190.828187  L 221.512876 191.93875  L 227.542177 191.571039  L 213.373507 203.063448  L 254.709769 208.59078  " clip-path="url(#p5cdbb883c4)" style="fill: none; stroke: #008000; stroke-linecap: square"/>
   </g>
   <g id="line2d_12">
    <path d="M 256.582592 208.26389  L 248.830776 189.85723  L 251.397431 195.951742  L 234.387517 185.484718  L 240.019562 188.950388  L 220.094629 190.326203  L 226.691848 189.870666  L 211.282002 202.576273  L 256.582592 208.26389  " clip-path="url(#p5cdbb883c4)" style="fill: none; stroke: #008000; stroke-linecap: square"/>
   </g>
   <g id="line2d_13">
    <path d="M 258.45133 207.906836  L 249.868208 187.975135  L 252.710111 194.574594  L 234.137082 183.350279  L 240.28668 187.066691  L 218.649716 188.735363  L 225.813794 188.18286  L 209.181425 202.122264  L 258.45133 207.906836  " clip-path="url(#p5cdbb883c4)" style="fill: none; stroke: #008000; stroke-linecap: square"/>
   </g>
   <g id="line2d_14">
    <path d="M 260.315617 207.519663  L 250.876247 186.075185  L 254.001657 193.175531  L 233.852352 181.218407  L 240.523861 185.177454  L 217.178394 187.166554  L 224.908164 186.507956  L 207.072175 201.701534  L 260.315617 207.519663  " clip-path="url(#p5cdbb883c4)" style="fill: none; stroke: #008000; stroke-linecap: square"/>
   </g>
   <g id="line2d_15">
    <path d="M 262.175091 207.10242  L 251.854674 184.157732  L 255.271802 191.754803  L 233.533353 179.089514  L 240.731033 183.283038  L 215.680926 185.620096  L 223.975109 184.846287  L 204.95465 201.314192  L 262.175091 207.10242  " clip-path="url(#p5cdbb883c4)" style="fill: none; stroke: #008000; stroke-linecap: square"/>
   </g>
   <g id="line2d_16">
    <path d="M 264.02939 206.655162  L 252.803274 182.22313  L 256.520282 190.312666  L 233.180116 176.964013  L 240.908131 181.383801  L 214.157576 184.096307  L 223.014783 183.198186  L 202.829252 200.960343  L 264.02939 206.655162  " clip-path="url(#p5cdbb883c4)" style="fill: none; stroke: #008000; stroke-linecap: square"/>
   </g>
   <g id="line2d_17">
    <path d="M 265.878151 206.177945  L 253.721836 180.271733  L 257.746836 188.849376  L 232.792676 174.842317  L 241.05509 179.480106  L 212.608612 182.595502  L 222.027346 181.563983  L 200.69638 200.640087  L 265.878151 206.177945  " clip-path="url(#p5cdbb883c4)" style="fill: none; stroke: #008000; stroke-linecap: square"/>
   </g>
   <g id="line2d_18">
    <path d="M 267.721012 205.670831  L 254.610151 178.303901  L 258.951206 187.365192  L 232.371072 172.724838  L 241.171852 177.572313  L 211.034306 181.117994  L 221.012959 179.944006  L 198.55644 200.35352  L 267.721012 205.670831  " clip-path="url(#p5cdbb883c4)" style="fill: none; stroke: #008000; stroke-linecap: square"/>
   </g>
   <g id="line2d_19">
    <path d="M 269.557614 205.133883  L 255.468017 176.319994  L 260.133135 185.860379  L 231.915348 170.611988  L 241.258361 175.660786  L 209.434934 179.664093  L 219.971788 178.338583  L 196.409833 200.100734  L 269.557614 205.133883  " clip-path="url(#p5cdbb883c4)" style="fill: none; stroke: #008000; stroke-linecap: square"/>
   </g>
   <g id="line2d_20">
    <path d="M 271.387597 204.567172  L 256.295234 174.320375  L 261.292371 184.335201  L 231.425552 168.504178  L 241.314566 173.745888  L 207.810774 178.234104  L 218.904002 176.748039  L 194.256965 199.881817  L 271.387597 204.567172  " clip-path="url(#p5cdbb883c4)" style="fill: none; stroke: #008000; stroke-linecap: square"/>
   </g>
   <g id="line2d_21">
    <path d="M 273.2106 203.970769  L 257.091604 172.305408  L 262.428663 182.789926  L 230.901737 166.401818  L 241.340418 171.827981  L 206.162107 176.828332  L 217.809775 175.172697  L 192.098242 199.696852  L 273.2106 203.970769  " clip-path="url(#p5cdbb883c4)" style="fill: none; stroke: #008000; stroke-linecap: square"/>
   </g>
   <g id="line2d_22">
    <path d="M 275.026264 203.344752  L 257.856937 170.27546  L 263.541764 181.224824  L 230.34396 164.305319  L 241.335876 169.907429  L 204.489218 175.447077  L 216.689282 173.612879  L 189.93407 199.545917  L 275.026264 203.344752  " clip-path="url(#p5cdbb883c4)" style="fill: none; stroke: #008000; stroke-linecap: square"/>
   </g>
   <g id="line2d_23">
    <path d="M 276.834234 202.6892  L 258.591044 168.230901  L 264.631431 179.64017  L 229.752283 162.215091  L 241.300897 167.984599  L 202.792396 174.090636  L 215.542703 172.068905  L 187.764856 199.429087  L 276.834234 202.6892  " clip-path="url(#p5cdbb883c4)" style="fill: none; stroke: #008000; stroke-linecap: square"/>
   </g>
   <g id="line2d_24">
    <path d="M 278.63415 202.004197  L 259.29374 166.172101  L 265.697421 178.03624  L 229.126771 160.131543  L 241.235448 166.059854  L 201.071933 172.759305  L 214.37022 170.541092  L 185.59101 199.346433  L 278.63415 202.004197  " clip-path="url(#p5cdbb883c4)" style="fill: none; stroke: #008000; stroke-linecap: square"/>
   </g>
   <g id="line2d_25">
    <path d="M 280.425657 201.289833  L 259.964845 164.099434  L 266.739495 176.413312  L 228.467495 158.055083  L 241.139495 164.13356  L 199.328122 171.453374  L 213.172021 169.029757  L 183.412941 199.298019  L 280.425657 201.289833  " clip-path="url(#p5cdbb883c4)" style="fill: none; stroke: #008000; stroke-linecap: square"/>
   </g>
   <g id="line2d_26">
    <path d="M 282.2084 200.546198  L 260.604183 162.013274  L 267.757419 174.771667  L 227.774528 155.986119  L 241.01301 162.206083  L 197.561261 170.173132  L 211.948295 167.535213  L 181.231057 199.283908  L 282.2084 200.546198  " clip-path="url(#p5cdbb883c4)" style="fill: none; stroke: #008000; stroke-linecap: square"/>
   </g>
   <g id="line2d_27">
    <path d="M 283.982025 199.773388  L 261.211581 159.914  L 268.750959 173.11159  L 227.047951 153.925058  L 240.85597 160.277789  L 195.771652 168.918865  L 210.699236 166.057773  L 179.045771 199.304156  L 283.982025 199.773388  " clip-path="url(#p5cdbb883c4)" style="fill: none; stroke: #008000; stroke-linecap: square"/>
   </g>
   <g id="line2d_28">
    <path d="M 285.746177 198.971502  L 261.786872 157.801988  L 269.719886 171.433366  L 226.287846 151.872306  L 240.668354 158.349045  L 193.959599 167.690853  L 209.42504 164.597746  L 176.857492 199.358817  L 285.746177 198.971502  " clip-path="url(#p5cdbb883c4)" style="fill: none; stroke: #008000; stroke-linecap: square"/>
   </g>
   <g id="line2d_29">
    <path d="M 287.500506 198.140645  L 262.32989 155.677622  L 270.663973 169.737285  L 225.494301 149.828268  L 240.450146 156.420217  L 192.125408 166.489376  L 208.125906 163.155441  L 174.666634 199.447938  L 287.500506 198.140645  " clip-path="url(#p5cdbb883c4)" style="fill: none; stroke: #008000; stroke-linecap: square"/>
   </g>
   <g id="line2d_30">
    <path d="M 289.244658 197.280923  L 262.840475 153.541282  L 271.582997 168.023638  L 224.667408 147.79335  L 240.201332 154.491672  L 190.269389 165.31471  L 206.802039 161.731163  L 172.473608 199.571563  L 289.244658 197.280923  " clip-path="url(#p5cdbb883c4)" style="fill: none; stroke: #008000; stroke-linecap: square"/>
   </g>
   <g id="line2d_31">
    <path d="M 290.978285 196.392446  L 263.318471 151.393353  L 272.476738 166.292718  L 223.807264 145.767954  L 239.921906 152.563779  L 188.391856 164.167127  L 205.453645 160.325215  L 170.278828 199.729731  L 290.978285 196.392446  " clip-path="url(#p5cdbb883c4)" style="fill: none; stroke: #008000; stroke-linecap: square"/>
   </g>
   <g id="line2d_32">
    <path d="M 292.701038 195.475329  L 263.763726 149.234222  L 273.344977 164.544823  L 222.913969 143.752482  L 239.611861 150.636903  L 186.493125 163.046895  L 204.080934 158.937901  L 168.082706 199.922478  L 292.701038 195.475329  " clip-path="url(#p5cdbb883c4)" style="fill: none; stroke: #008000; stroke-linecap: square"/>
   </g>
   <g id="line2d_33">
    <path d="M 294.412567 194.529691  L 264.176092 147.064276  L 274.1875 162.780249  L 221.987628 141.747338  L 239.271197 148.711412  L 184.573514 161.95428  L 202.684119 157.569518  L 165.885658 200.149835  L 294.412567 194.529691  " clip-path="url(#p5cdbb883c4)" style="fill: none; stroke: #008000; stroke-linecap: square"/>
   </g>
   <g id="line2d_34">
    <path d="M 296.112528 193.555653  L 264.555425 144.883904  L 275.004098 160.999299  L 221.02835 139.752921  L 238.899919 146.787675  L 182.633346 160.889545  L 201.263415 156.220364  L 163.688097 200.411827  L 296.112528 193.555653  " clip-path="url(#p5cdbb883c4)" style="fill: none; stroke: #008000; stroke-linecap: square"/>
   </g>
   <g id="line2d_35">
    <path d="M 297.800573 192.553342  L 264.901584 142.693498  L 275.794561 159.202276  L 220.03625 137.76963  L 238.498032 144.866058  L 180.672945 159.852948  L 199.819044 154.890734  L 161.490438 200.708477  L 297.800573 192.553342  " clip-path="url(#p5cdbb883c4)" style="fill: none; stroke: #008000; stroke-linecap: square"/>
   </g>
   <g id="line2d_36">
    <path d="M 299.47636 191.522887  L 265.214435 140.493449  L 276.558685 157.389484  L 219.011444 135.797863  L 238.065547 142.946928  L 178.692638 158.844745  L 198.351227 153.58092  L 159.293096 201.039801  L 299.47636 191.522887  " clip-path="url(#p5cdbb883c4)" style="fill: none; stroke: #008000; stroke-linecap: square"/>
   </g>
   <g id="line2d_37">
    <path d="M 301.139545 190.46442  L 265.493846 138.284153  L 277.296268 155.561232  L 217.954056 133.838019  L 237.602481 141.030655  L 176.692756 157.865188  L 196.86019 152.291212  L 157.096486 201.405813  L 301.139545 190.46442  " clip-path="url(#p5cdbb883c4)" style="fill: none; stroke: #008000; stroke-linecap: square"/>
   </g>
   <g id="line2d_38">
    <path d="M 302.789787 189.378079  L 265.739689 136.066005  L 278.007113 153.717829  L 216.864212 131.890492  L 237.108851 139.117604  L 174.673632 156.914526  L 195.346163 151.021899  L 154.901024 201.80652  L 302.789787 189.378079  " clip-path="url(#p5cdbb883c4)" style="fill: none; stroke: #008000; stroke-linecap: square"/>
   </g>
   <g id="line2d_39">
    <path d="M 304.426745 188.264005  L 265.951842 133.839401  L 278.691024 151.859588  L 215.742041 129.955678  L 236.584681 137.208143  L 172.635602 155.993002  L 193.809377 149.773266  L 152.707125 202.241929  L 304.426745 188.264005  " clip-path="url(#p5cdbb883c4)" style="fill: none; stroke: #008000; stroke-linecap: square"/>
   </g>
   <g id="line2d_40">
    <path d="M 306.050081 187.122341  L 266.130185 131.604741  L 279.34781 149.986823  L 214.587681 128.033969  L 236.029998 135.30264  L 170.579004 155.10086  L 192.250069 148.545596  L 150.515205 202.712037  L 306.050081 187.122341  " clip-path="url(#p5cdbb883c4)" style="fill: none; stroke: #008000; stroke-linecap: square"/>
   </g>
   <g id="line2d_41">
    <path d="M 307.659459 185.953236  L 266.274604 129.362423  L 279.977282 148.09985  L 213.401268 126.125758  L 235.444831 133.40146  L 168.504179 154.238336  L 190.668475 147.33917  L 148.325681 203.21684  L 307.659459 185.953236  " clip-path="url(#p5cdbb883c4)" style="fill: none; stroke: #008000; stroke-linecap: square"/>
   </g>
   <g id="line2d_42">
    <path d="M 309.254541 184.756841  L 266.384989 127.11285  L 280.579255 146.198987  L 212.182948 124.231434  L 234.829217 131.504972  L 166.411472 153.405665  L 189.064839 146.154265  L 146.138967 203.756328  L 309.254541 184.756841  " clip-path="url(#p5cdbb883c4)" style="fill: none; stroke: #008000; stroke-linecap: square"/>
   </g>
   <g id="line2d_43">
    <path d="M 310.834994 183.53331  L 266.461232 124.856422  L 281.153548 144.284556  L 210.932867 122.351388  L 234.183193 129.61354  L 164.301227 152.603078  L 187.439403 144.991157  L 143.955479 204.330489  L 310.834994 183.53331  " clip-path="url(#p5cdbb883c4)" style="fill: none; stroke: #008000; stroke-linecap: square"/>
   </g>
   <g id="line2d_44">
    <path d="M 312.400486 182.282804  L 266.503233 122.593545  L 281.699983 142.356878  L 209.651177 120.486006  L 233.506802 127.727532  L 162.173795 151.830801  L 185.792416 143.85012  L 141.775635 204.939304  L 312.400486 182.282804  " clip-path="url(#p5cdbb883c4)" style="fill: none; stroke: #008000; stroke-linecap: square"/>
   </g>
   <g id="line2d_45">
    <path d="M 313.950686 181.005483  L 266.510894 120.324623  L 282.218384 140.416279  L 208.338035 118.635675  L 232.80009 125.847313  L 160.029527 151.089059  L 184.124128 142.731424  L 139.599849 205.58275  L 313.950686 181.005483  " clip-path="url(#p5cdbb883c4)" style="fill: none; stroke: #008000; stroke-linecap: square"/>
   </g>
   <g id="line2d_46">
    <path d="M 315.485263 179.701514  L 266.484121 118.050061  L 282.70858 138.463084  L 206.9936 116.800779  L 232.063108 123.973248  L 157.868776 150.378071  L 182.434793 141.635337  L 137.428536 206.2608  L 315.485263 179.701514  " clip-path="url(#p5cdbb883c4)" style="fill: none; stroke: #008000; stroke-linecap: square"/>
   </g>
   <g id="line2d_47">
    <path d="M 317.003891 178.371067  L 266.422826 115.770266  L 283.170403 136.497622  L 205.618037 114.981701  L 231.29591 122.105701  L 155.691899 149.698052  L 180.724665 140.562123  L 135.262114 206.973423  L 317.003891 178.371067  " clip-path="url(#p5cdbb883c4)" style="fill: none; stroke: #008000; stroke-linecap: square"/>
   </g>
   <g id="line2d_48">
    <path d="M 318.506244 177.014313  L 266.326924 113.485648  L 283.603689 134.520223  L 204.211513 113.178822  L 230.498555 120.245038  L 153.499254 149.049216  L 178.994006 139.512046  L 133.100995 207.720583  L 318.506244 177.014313  " clip-path="url(#p5cdbb883c4)" style="fill: none; stroke: #008000; stroke-linecap: square"/>
   </g>
   <g id="line2d_49">
    <path d="M 319.991997 175.631431  L 266.196333 111.196614  L 284.008276 132.531219  L 202.774202 111.392522  L 229.671103 118.391622  L 151.291203 148.43177  L 177.243076 138.485366  L 130.945597 208.50224  L 319.991997 175.631431  " clip-path="url(#p5cdbb883c4)" style="fill: none; stroke: #008000; stroke-linecap: square"/>
   </g>
   <g id="line2d_50">
    <path d="M 321.460829 174.222599  L 266.030979 108.903575  L 284.384006 130.530944  L 201.306281 109.623179  L 228.813621 116.545817  L 149.068108 147.845919  L 175.472141 137.48234  L 128.796333 209.318348  L 321.460829 174.222599  " clip-path="url(#p5cdbb883c4)" style="fill: none; stroke: #008000; stroke-linecap: square"/>
   </g>
   <g id="line2d_51">
    <path d="M 322.912418 172.788001  L 265.83079 106.606941  L 284.730727 128.519734  L 199.807928 107.871168  L 227.92618 114.707984  L 146.830337 147.291864  L 173.681468 136.503222  L 126.653617 210.168859  L 322.912418 172.788001  " clip-path="url(#p5cdbb883c4)" style="fill: none; stroke: #008000; stroke-linecap: square"/>
   </g>
   <g id="line2d_52">
    <path d="M 324.346446 171.327825  L 265.595698 104.307126  L 285.048287 126.497926  L 198.279331 106.136864  L 227.008852 112.878487  L 144.578255 146.769802  L 171.871329 135.548263  L 124.517863 211.053719  L 324.346446 171.327825  " clip-path="url(#p5cdbb883c4)" style="fill: none; stroke: #008000; stroke-linecap: square"/>
   </g>
   <g id="line2d_53">
    <path d="M 325.762596 169.84226  L 265.325641 102.004541  L 285.336539 124.465859  L 196.720677 104.42064  L 226.061715 111.057686  L 142.312234 146.279927  L 170.041995 134.617713  L 122.389486 211.97287  L 325.762596 169.84226  " clip-path="url(#p5cdbb883c4)" style="fill: none; stroke: #008000; stroke-linecap: square"/>
   </g>
   <g id="line2d_54">
    <path d="M 327.160554 168.331501  L 265.020559 99.699599  L 285.59534 122.423874  L 195.132159 102.722865  L 225.084851 109.245942  L 140.032645 145.822427  L 168.193744 133.711818  L 120.268897 212.926249  L 327.160554 168.331501  " clip-path="url(#p5cdbb883c4)" style="fill: none; stroke: #008000; stroke-linecap: square"/>
   </g>
   <g id="line2d_55">
    <path d="M 328.540006 166.795744  L 264.680399 97.392716  L 285.82455 120.372314  L 193.513974 101.043908  L 224.078345 107.443615  L 137.739864 145.397488  L 166.326853 132.830821  L 118.156509 213.913789  L 328.540006 166.795744  " clip-path="url(#p5cdbb883c4)" style="fill: none; stroke: #008000; stroke-linecap: square"/>
   </g>
   <g id="line2d_56">
    <path d="M 329.900642 165.235191  L 264.305111 95.084306  L 286.024033 118.311522  L 191.866322 99.384136  L 223.042287 105.651063  L 135.434267 145.005291  L 164.441604 131.974962  L 116.052734 214.935419  L 329.900642 165.235191  " clip-path="url(#p5cdbb883c4)" style="fill: none; stroke: #008000; stroke-linecap: square"/>
   </g>
   <g id="line2d_57">
    <path d="M 331.242153 163.650045  L 263.894649 92.774785  L 286.193656 116.241844  L 190.189409 97.743914  L 221.976768 103.868647  L 133.116232 144.646014  L 162.538282 131.144478  L 113.957983 215.991064  L 331.242153 163.650045  " clip-path="url(#p5cdbb883c4)" style="fill: none; stroke: #008000; stroke-linecap: square"/>
   </g>
   <g id="line2d_58">
    <path d="M 332.564232 162.040514  L 263.448973 90.464568  L 286.33329 114.163627  L 188.483444 96.123603  L 220.881888 102.096721  L 130.786139 144.31983  L 160.617173 130.339604  L 111.872666 217.080643  L 332.564232 162.040514  " clip-path="url(#p5cdbb883c4)" style="fill: none; stroke: #008000; stroke-linecap: square"/>
   </g>
   <g id="line2d_59">
    <path d="M 333.866574 160.406808  L 262.968046 88.154074  L 286.44281 112.07722  L 186.748638 94.523564  L 219.757745 100.335644  L 128.444372 144.026909  L 158.678566 129.560571  L 109.797194 218.204072  L 333.866574 160.406808  " clip-path="url(#p5cdbb883c4)" style="fill: none; stroke: #008000; stroke-linecap: square"/>
   </g>
   <g id="line2d_60">
    <path d="M 335.148877 158.749141  L 262.451836 85.843719  L 286.522094 109.982972  L 184.985209 92.944155  L 218.604445 98.58577  L 126.091315 143.767417  L 156.722753 128.807607  L 107.731976 219.361261  L 335.148877 158.749141  " clip-path="url(#p5cdbb883c4)" style="fill: none; stroke: #008000; stroke-linecap: square"/>
   </g>
   <g id="line2d_61">
    <path d="M 336.410841 157.067732  L 261.900316 83.533921  L 286.571025 107.881236  L 183.193376 91.385733  L 217.422096 96.847455  L 123.727354 143.541514  L 154.750028 128.080939  L 105.677419 220.552117  L 336.410841 157.067732  " clip-path="url(#p5cdbb883c4)" style="fill: none; stroke: #008000; stroke-linecap: square"/>
   </g>
   <g id="line2d_62">
    <path d="M 337.652167 155.3628  L 261.313461 81.225098  L 286.589487 105.772364  L 181.373365 89.848651  L 216.21081 95.121051  L 121.352878 143.349358  L 152.760688 127.380788  L 103.633931 221.776544  L 337.652167 155.3628  " clip-path="url(#p5cdbb883c4)" style="fill: none; stroke: #008000; stroke-linecap: square"/>
   </g>
   <g id="line2d_63">
    <path d="M 338.872559 153.634569  L 260.691253 78.917669  L 286.577371 103.656709  L 179.525404 88.33326  L 214.970704 93.406911  L 118.968276 143.191102  L 150.755033 126.707373  L 101.601919 223.034437  L 338.872559 153.634569  " clip-path="url(#p5cdbb883c4)" style="fill: none; stroke: #008000; stroke-linecap: square"/>
   </g>
   <g id="line2d_64">
    <path d="M 340.071725 151.883267  L 260.033678 76.612053  L 286.53457 101.534629  L 177.649723 86.839911  L 213.701897 91.705386  L 116.573941 143.066897  L 148.733364 126.060912  L 99.581788 224.325692  L 340.071725 151.883267  " clip-path="url(#p5cdbb883c4)" style="fill: none; stroke: #008000; stroke-linecap: square"/>
   </g>
   <g id="line2d_65">
    <path d="M 341.249372 150.109123  L 259.340727 74.30867  L 286.46098 99.406479  L 175.74656 85.36895  L 212.404512 90.016827  L 114.170266 142.976886  L 146.695986 125.441615  L 97.573943 225.650197  L 341.249372 150.109123  " clip-path="url(#p5cdbb883c4)" style="fill: none; stroke: #008000; stroke-linecap: square"/>
   </g>
   <g id="line2d_66">
    <path d="M 342.405212 148.312372  L 258.612392 72.007939  L 286.356503 97.272617  L 173.816154 83.920721  L 211.078678 88.341583  L 111.757646 142.921211  L 144.643205 124.849695  L 95.578787 227.007838  L 342.405212 148.312372  " clip-path="url(#p5cdbb883c4)" style="fill: none; stroke: #008000; stroke-linecap: square"/>
   </g>
   <g id="line2d_67">
    <path d="M 343.538958 146.49325  L 257.848674 69.710279  L 286.221042 95.133403  L 171.858748 82.495566  L 209.724525 86.680001  L 109.336478 142.900008  L 142.575329 124.285357  L 93.596722 228.398494  L 343.538958 146.49325  " clip-path="url(#p5cdbb883c4)" style="fill: none; stroke: #008000; stroke-linecap: square"/>
   </g>
   <g id="line2d_68">
    <path d="M 344.650325 144.651996  L 257.049576 67.416112  L 286.054506 92.989197  L 169.87459 81.093826  L 208.342187 85.032427  L 106.907161 142.913411  L 140.492671 123.748804  L 91.628151 229.822041  L 344.650325 144.651996  " clip-path="url(#p5cdbb883c4)" style="fill: none; stroke: #008000; stroke-linecap: square"/>
   </g>
   <g id="line2d_69">
    <path d="M 345.739032 142.788853  L 256.215106 65.125857  L 285.856807 90.840361  L 167.863929 79.715838  L 206.931805 83.399208  L 104.470095 142.961548  L 138.395544 123.240238  L 89.673473 231.278353  L 345.739032 142.788853  " clip-path="url(#p5cdbb883c4)" style="fill: none; stroke: #008000; stroke-linecap: square"/>
   </g>
   <g id="line2d_70">
    <path d="M 346.804801 140.904069  L 255.345276 62.839934  L 285.627861 88.687256  L 165.827021 78.361936  L 205.49352 81.780687  L 102.025681 143.044543  L 136.284263 122.759855  L 87.733088 232.767296  L 346.804801 140.904069  " clip-path="url(#p5cdbb883c4)" style="fill: none; stroke: #008000; stroke-linecap: square"/>
   </g>
   <g id="line2d_71">
    <path d="M 347.847352 138.997891  L 254.440104 60.558764  L 285.367587 86.530248  L 163.764123 77.032452  L 204.027477 80.177207  L 99.574323 143.162516  L 134.159147 122.307849  L 85.807393 234.288734  L 347.847352 138.997891  " clip-path="url(#p5cdbb883c4)" style="fill: none; stroke: #008000; stroke-linecap: square"/>
   </g>
   <g id="line2d_72">
    <path d="M 348.866414 137.070571  L 253.499609 58.282767  L 285.075909 84.369699  L 161.675498 75.727716  L 202.533828 78.589108  L 97.116425 143.315584  L 132.020515 121.88441  L 83.896785 235.842525  L 348.866414 137.070571  " clip-path="url(#p5cdbb883c4)" style="fill: none; stroke: #008000; stroke-linecap: square"/>
   </g>
   <g id="line2d_73">
    <path d="M 349.861713 135.122366  L 252.52382 56.012364  L 284.752754 82.205977  L 159.56141 74.448055  L 201.012725 77.016731  L 94.652393 143.503857  L 129.86869 121.489725  L 82.001658 237.428525  L 349.861713 135.122366  " clip-path="url(#p5cdbb883c4)" style="fill: none; stroke: #008000; stroke-linecap: square"/>
   </g>
   <g id="line2d_74">
    <path d="M 350.832981 133.153533  L 251.512764 53.747974  L 284.398053 80.039446  L 157.422129 73.193793  L 199.464325 75.460414  L 92.182635 143.727443  L 127.703997 121.123979  L 80.122408 239.046583  L 350.832981 133.153533  " clip-path="url(#p5cdbb883c4)" style="fill: none; stroke: #008000; stroke-linecap: square"/>
   </g>
   <g id="line2d_75">
    <path d="M 351.779951 131.164333  L 250.466478 51.490017  L 284.011742 77.870476  L 155.257928 71.965251  L 197.888789 73.920493  L 89.707559 143.986446  L 125.526763 120.787351  L 78.259426 240.696547  L 351.779951 131.164333  " clip-path="url(#p5cdbb883c4)" style="fill: none; stroke: #008000; stroke-linecap: square"/>
   </g>
   <g id="line2d_76">
    <path d="M 352.702359 129.15503  L 249.385001 49.238913  L 283.593759 75.699433  L 153.069082 70.762749  L 196.286282 72.397303  L 87.227576 144.280964  L 123.337315 120.480019  L 76.413102 242.378257  L 352.702359 129.15503  " clip-path="url(#p5cdbb883c4)" style="fill: none; stroke: #008000; stroke-linecap: square"/>
   </g>
   <g id="line2d_77">
    <path d="M 353.599945 127.125891  L 248.268376 46.995083  L 283.144046 73.526688  L 150.85587 69.586601  L 194.656972 70.891179  L 84.743095 144.611091  L 121.135984 120.202157  L 74.583828 244.091553  L 353.599945 127.125891  " clip-path="url(#p5cdbb883c4)" style="fill: none; stroke: #008000; stroke-linecap: square"/>
   </g>
   <g id="line2d_78">
    <path d="M 354.472449 125.077186  L 247.116652 44.758945  L 282.662551 71.35261  L 148.618577 68.437122  L 193.00103 69.402451  L 82.254531 144.976917  L 118.923104 119.953934  L 72.77199 245.836266  L 354.472449 125.077186  " clip-path="url(#p5cdbb883c4)" style="fill: none; stroke: #008000; stroke-linecap: square"/>
   </g>
   <g id="line2d_79">
    <path d="M 355.319615 123.009189  L 245.929881 42.530918  L 282.149224 69.177569  L 146.357488 67.314622  L 191.318631 67.931451  L 79.762295 145.37853  L 116.699009 119.735517  L 70.977975 247.612228  L 355.319615 123.009189  " clip-path="url(#p5cdbb883c4)" style="fill: none; stroke: #008000; stroke-linecap: square"/>
   </g>
   <g id="line2d_80">
    <path d="M 356.141192 120.922173  L 244.708119 40.311421  L 281.60402 67.001937  L 144.072893 66.219408  L 189.609955 66.478506  L 77.266804 145.816009  L 114.464034 119.54707  L 69.202167 249.419262  L 356.141192 120.922173  " clip-path="url(#p5cdbb883c4)" style="fill: none; stroke: #008000; stroke-linecap: square"/>
   </g>
   <g id="line2d_81">
    <path d="M 356.936928 118.816418  L 243.45143 38.100872  L 281.026896 64.826087  L 141.765087 65.151785  L 187.875184 65.043945  L 74.768472 146.289432  L 112.21852 119.388753  L 67.44495 251.257191  L 356.936928 118.816418  " clip-path="url(#p5cdbb883c4)" style="fill: none; stroke: #008000; stroke-linecap: square"/>
   </g>
   <g id="line2d_82">
    <path d="M 357.706577 116.692206  L 242.159879 35.89969  L 280.417816 62.650389  L 139.434364 64.112053  L 186.114504 63.628091  L 72.267716 146.798873  L 109.962806 119.260721  L 65.706705 253.12583  L 357.706577 116.692206  " clip-path="url(#p5cdbb883c4)" style="fill: none; stroke: #008000; stroke-linecap: square"/>
   </g>
   <g id="line2d_83">
    <path d="M 358.449893 114.549819  L 240.833536 33.708291  L 279.776744 60.475218  L 137.081026 63.100512  L 184.328103 62.231268  L 69.764954 147.344398  L 107.697234 119.163128  L 63.987811 255.024993  L 358.449893 114.549819  " clip-path="url(#p5cdbb883c4)" style="fill: none; stroke: #008000; stroke-linecap: square"/>
   </g>
   <g id="line2d_84">
    <path d="M 359.166636 112.389545  L 239.472476 31.527093  L 279.103653 58.300948  L 134.705376 62.117457  L 182.516176 60.853797  L 67.260605 147.926073  L 105.422149 119.096122  L 62.288647 256.954489  L 359.166636 112.389545  " clip-path="url(#p5cdbb883c4)" style="fill: none; stroke: #008000; stroke-linecap: square"/>
   </g>
   <g id="line2d_85">
    <path d="M 359.856566 110.211673  L 238.076779 29.35651  L 278.398514 56.127952  L 132.30772 61.163181  L 180.678919 59.495998  L 64.755088 148.543958  L 103.137895 119.059851  L 60.609589 258.914121  L 359.856566 110.211673  " clip-path="url(#p5cdbb883c4)" style="fill: none; stroke: #008000; stroke-linecap: square"/>
   </g>
   <g id="line2d_86">
    <path d="M 360.519447 108.016494  L 236.646528 27.196961  L 277.661307 53.956606  L 129.888368 60.237973  L 178.816532 58.158189  L 62.248823 149.198106  L 100.84482 119.054454  L 58.951009 260.903691  L 360.519447 108.016494  " clip-path="url(#p5cdbb883c4)" style="fill: none; stroke: #008000; stroke-linecap: square"/>
   </g>
   <g id="line2d_87">
    <path d="M 361.155048 105.804305  L 235.181812 25.048858  L 276.892014 51.787283  L 127.447634 59.342119  L 176.929218 56.840685  L 59.742232 149.888569  L 98.543274 119.080072  L 57.313281 262.922994  L 361.155048 105.804305  " clip-path="url(#p5cdbb883c4)" style="fill: none; stroke: #008000; stroke-linecap: square"/>
   </g>
   <g id="line2d_88">
    <path d="M 361.763138 103.575401  L 233.682724 22.912616  L 276.09062 49.620361  L 124.985833 58.475902  L 175.017184 55.5438  L 57.235736 150.615393  L 96.233607 119.136839  L 55.696775 264.971823  L 361.763138 103.575401  " clip-path="url(#p5cdbb883c4)" style="fill: none; stroke: #008000; stroke-linecap: square"/>
   </g>
  </g>
 </g>
 <defs>
  
 </defs>
</svg>