<?xml version="1.0" ?><!DOCTYPE svg  PUBLIC '-//W3C//DTD SVG 1.1//EN'  'http://www.w3.org/Graphics/SVG/1.1/DTD/svg11.dtd'><svg xmlns:xlink="http://www.w3.org/1999/xlink" xmlns="http://www.w3.org/2000/svg" width="223.65pt" height="181.8pt" viewBox="0 0 223.65 181.8" version="1.1">
 <metadata>
  <rdf:RDF xmlns:dc="http://purl.org/dc/elements/1.1/" xmlns:cc="http://creativecommons.org/ns#" xmlns:rdf="http://www.w3.org/1999/02/22-rdf-syntax-ns#">
   <cc:Work>
    <dc:type rdf:resource="http://purl.org/dc/dcmitype/StillImage"/>
    <dc:date>2025-06-12T09:36:47.978817</dc:date>
    <dc:format>image/svg+xml</dc:format>
    <dc:creator>
     <cc:Agent>
      <dc:title>Matplotlib v3.9.2, https://matplotlib.org/</dc:title>
     </cc:Agent>
    </dc:creator>
   </cc:Work>
  </rdf:RDF>
 </metadata>
 <defs>
  <style type="text/css">*{stroke-linejoin: round; stroke-linecap: butt}</style>
 </defs>
 <g id="figure_1">
  <g id="patch_1">
   <path d="M 0 181.8  L 223.65 181.8  L 223.65 0  L 0 0  z " style="fill: #ffffff"/>
  </g>
  <g id="axes_1">
   <g id="line2d_1">
    <path d="M 114.440625 90.9  L 111.825 88.284375  L 109.209375 90.9  L 111.825 93.515625  L 114.440625 90.9  " clip-path="url(#p50ad47a3bc)" style="fill: none; stroke: #008000; stroke-linecap: square"/>
   </g>
   <g id="line2d_2">
    <path d="M 115.3621 89.952237  L 110.877237 87.3629  L 108.2879 91.847763  L 112.772763 94.4371  L 115.3621 89.952237  " clip-path="url(#p50ad47a3bc)" style="fill: none; stroke: #008000; stroke-linecap: square"/>
   </g>
   <g id="line2d_3">
    <path d="M 115.902356 88.545938  L 109.470938 86.822644  L 107.747644 93.254063  L 114.179063 94.977356  L 115.902356 88.545938  " clip-path="url(#p50ad47a3bc)" style="fill: none; stroke: #008000; stroke-linecap: square"/>
   </g>
   <g id="line2d_4">
    <path d="M 115.893958 86.831042  L 107.756042 86.831042  L 107.756042 94.968958  L 115.893958 94.968958  L 115.893958 86.831042  " clip-path="url(#p50ad47a3bc)" style="fill: none; stroke: #008000; stroke-linecap: square"/>
   </g>
   <g id="line2d_5">
    <path d="M 115.225313 85.010486  L 105.935486 87.499688  L 108.424688 96.789514  L 117.714514 94.300313  L 115.225313 85.010486  " clip-path="url(#p50ad47a3bc)" style="fill: none; stroke: #008000; stroke-linecap: square"/>
   </g>
   <g id="line2d_6">
    <path d="M 113.855921 83.320501  L 104.245501 88.869079  L 109.794079 98.479499  L 119.404499 92.930921  L 113.855921 83.320501  " clip-path="url(#p50ad47a3bc)" style="fill: none; stroke: #008000; stroke-linecap: square"/>
   </g>
   <g id="line2d_7">
    <path d="M 111.825 82.006875  L 102.931875 90.9  L 111.825 99.793125  L 120.718125 90.9  L 111.825 82.006875  " clip-path="url(#p50ad47a3bc)" style="fill: none; stroke: #008000; stroke-linecap: square"/>
   </g>
   <g id="line2d_8">
    <path d="M 109.2525 81.299301  L 102.224301 93.4725  L 114.3975 100.500699  L 121.425699 88.3275  L 109.2525 81.299301  " clip-path="url(#p50ad47a3bc)" style="fill: none; stroke: #008000; stroke-linecap: square"/>
   </g>
   <g id="line2d_9">
    <path d="M 106.332188 81.38617  L 102.31117 96.392813  L 117.317813 100.41383  L 121.33883 85.407188  L 106.332188 81.38617  " clip-path="url(#p50ad47a3bc)" style="fill: none; stroke: #008000; stroke-linecap: square"/>
   </g>
   <g id="line2d_10">
    <path d="M 103.31718 82.39218  L 103.31718 99.40782  L 120.33282 99.40782  L 120.33282 82.39218  L 103.31718 82.39218  " clip-path="url(#p50ad47a3bc)" style="fill: none; stroke: #008000; stroke-linecap: square"/>
   </g>
   <g id="line2d_11">
    <path d="M 100.499012 84.360938  L 105.285938 102.225988  L 123.150988 97.439063  L 118.364063 79.574012  L 100.499012 84.360938  " clip-path="url(#p50ad47a3bc)" style="fill: none; stroke: #008000; stroke-linecap: square"/>
   </g>
   <g id="line2d_12">
    <path d="M 98.181901 87.244343  L 108.169343 104.543099  L 125.468099 94.555657  L 115.480657 77.256901  L 98.181901 87.244343  " clip-path="url(#p50ad47a3bc)" style="fill: none; stroke: #008000; stroke-linecap: square"/>
   </g>
   <g id="line2d_13">
    <path d="M 96.654375 90.9  L 111.825 106.070625  L 126.995625 90.9  L 111.825 75.729375  L 96.654375 90.9  " clip-path="url(#p50ad47a3bc)" style="fill: none; stroke: #008000; stroke-linecap: square"/>
   </g>
   <g id="line2d_14">
    <path d="M 96.160702 95.097236  L 116.022236 106.564298  L 127.489298 86.702764  L 107.627764 75.235702  L 96.160702 95.097236  " clip-path="url(#p50ad47a3bc)" style="fill: none; stroke: #008000; stroke-linecap: square"/>
   </g>
   <g id="line2d_15">
    <path d="M 96.874695 99.531563  L 120.456563 105.850305  L 126.775305 82.268438  L 103.193437 75.949695  L 96.874695 99.531563  " clip-path="url(#p50ad47a3bc)" style="fill: none; stroke: #008000; stroke-linecap: square"/>
   </g>
   <g id="line2d_16">
    <path d="M 98.878317 103.846683  L 124.771683 103.846683  L 124.771683 77.953317  L 98.878317 77.953317  L 98.878317 103.846683  " clip-path="url(#p50ad47a3bc)" style="fill: none; stroke: #008000; stroke-linecap: square"/>
   </g>
   <g id="line2d_17">
    <path d="M 102.147187 107.662463  L 128.587463 100.577813  L 121.502813 74.137537  L 95.062537 81.222188  L 102.147187 107.662463  " clip-path="url(#p50ad47a3bc)" style="fill: none; stroke: #008000; stroke-linecap: square"/>
   </g>
   <g id="line2d_18">
    <path d="M 106.544606 110.606698  L 131.531698 96.180394  L 117.105394 71.193302  L 92.118302 85.619606  L 106.544606 110.606698  " clip-path="url(#p50ad47a3bc)" style="fill: none; stroke: #008000; stroke-linecap: square"/>
   </g>
   <g id="line2d_19">
    <path d="M 111.825 112.348125  L 133.273125 90.9  L 111.825 69.451875  L 90.376875 90.9  L 111.825 112.348125  " clip-path="url(#p50ad47a3bc)" style="fill: none; stroke: #008000; stroke-linecap: square"/>
   </g>
   <g id="line2d_20">
    <path d="M 117.646973 112.627898  L 133.552898 85.078027  L 106.003027 69.172102  L 90.097102 96.721973  L 117.646973 112.627898  " clip-path="url(#p50ad47a3bc)" style="fill: none; stroke: #008000; stroke-linecap: square"/>
   </g>
   <g id="line2d_21">
    <path d="M 123.595313 111.286779  L 132.211779 79.129688  L 100.054687 70.513221  L 91.438221 102.670313  L 123.595313 111.286779  " clip-path="url(#p50ad47a3bc)" style="fill: none; stroke: #008000; stroke-linecap: square"/>
   </g>
   <g id="line2d_22">
    <path d="M 129.210546 108.285546  L 129.210546 73.514454  L 94.439454 73.514454  L 94.439454 108.285546  L 129.210546 108.285546  " clip-path="url(#p50ad47a3bc)" style="fill: none; stroke: #008000; stroke-linecap: square"/>
   </g>
   <g id="line2d_23">
    <path d="M 134.023937 103.716563  L 124.641563 68.701063  L 89.626063 78.083438  L 99.008437 113.098937  L 134.023937 103.716563  " clip-path="url(#p50ad47a3bc)" style="fill: none; stroke: #008000; stroke-linecap: square"/>
   </g>
   <g id="line2d_24">
    <path d="M 137.595297 97.80513  L 118.73013 65.129703  L 86.054703 83.99487  L 104.91987 116.670297  L 137.595297 97.80513  " clip-path="url(#p50ad47a3bc)" style="fill: none; stroke: #008000; stroke-linecap: square"/>
   </g>
   <g id="line2d_25">
    <path d="M 139.550625 90.9  L 111.825 63.174375  L 84.099375 90.9  L 111.825 118.625625  L 139.550625 90.9  " clip-path="url(#p50ad47a3bc)" style="fill: none; stroke: #008000; stroke-linecap: square"/>
   </g>
   <g id="line2d_26">
    <path d="M 139.616497 83.453291  L 104.378291 63.108503  L 84.033503 98.346709  L 119.271709 118.691497  L 139.616497 83.453291  " clip-path="url(#p50ad47a3bc)" style="fill: none; stroke: #008000; stroke-linecap: square"/>
   </g>
   <g id="line2d_27">
    <path d="M 137.648254 75.990938  L 96.915937 65.076746  L 86.001746 105.809063  L 126.734063 116.723254  L 137.648254 75.990938  " clip-path="url(#p50ad47a3bc)" style="fill: none; stroke: #008000; stroke-linecap: square"/>
   </g>
   <g id="line2d_28">
    <path d="M 133.649409 69.075591  L 90.000591 69.075591  L 90.000591 112.724409  L 133.649409 112.724409  L 133.649409 69.075591  " clip-path="url(#p50ad47a3bc)" style="fill: none; stroke: #008000; stroke-linecap: square"/>
   </g>
   <g id="line2d_29">
    <path d="M 127.780312 63.264588  L 84.189588 74.944688  L 95.869688 118.535412  L 139.460412 106.855313  L 127.780312 63.264588  " clip-path="url(#p50ad47a3bc)" style="fill: none; stroke: #008000; stroke-linecap: square"/>
   </g>
   <g id="line2d_30">
    <path d="M 120.354867 59.066103  L 79.991103 82.370133  L 103.295133 122.733897  L 143.658897 99.429867  L 120.354867 59.066103  " clip-path="url(#p50ad47a3bc)" style="fill: none; stroke: #008000; stroke-linecap: square"/>
   </g>
   <g id="line2d_31">
    <path d="M 111.825 56.896875  L 77.821875 90.9  L 111.825 124.903125  L 145.828125 90.9  L 111.825 56.896875  " clip-path="url(#p50ad47a3bc)" style="fill: none; stroke: #008000; stroke-linecap: square"/>
   </g>
   <g id="line2d_32">
    <path d="M 102.753554 57.044903  L 77.969903 99.971446  L 120.896446 124.755097  L 145.680097 81.828554  L 102.753554 57.044903  " clip-path="url(#p50ad47a3bc)" style="fill: none; stroke: #008000; stroke-linecap: square"/>
   </g>
   <g id="line2d_33">
    <path d="M 93.777188 59.640272  L 80.565272 108.947812  L 129.872812 122.159728  L 143.084728 72.852188  L 93.777188 59.640272  " clip-path="url(#p50ad47a3bc)" style="fill: none; stroke: #008000; stroke-linecap: square"/>
   </g>
   <g id="line2d_34">
    <path d="M 85.561728 64.636728  L 85.561728 117.163272  L 138.088272 117.163272  L 138.088272 64.636728  L 85.561728 64.636728  " clip-path="url(#p50ad47a3bc)" style="fill: none; stroke: #008000; stroke-linecap: square"/>
   </g>
   <g id="line2d_35">
    <path d="M 78.753114 71.805938  L 92.730938 123.971886  L 144.896886 109.994063  L 130.919062 57.828114  L 78.753114 71.805938  " clip-path="url(#p50ad47a3bc)" style="fill: none; stroke: #008000; stroke-linecap: square"/>
   </g>
   <g id="line2d_36">
    <path d="M 73.927504 80.745397  L 101.670397 128.797496  L 149.722496 101.054603  L 121.979603 53.002504  L 73.927504 80.745397  " clip-path="url(#p50ad47a3bc)" style="fill: none; stroke: #008000; stroke-linecap: square"/>
   </g>
   <g id="line2d_37">
    <path d="M 71.544375 90.9  L 111.825 131.180625  L 152.105625 90.9  L 111.825 50.619375  L 71.544375 90.9  " clip-path="url(#p50ad47a3bc)" style="fill: none; stroke: #008000; stroke-linecap: square"/>
   </g>
   <g id="line2d_38">
    <path d="M 71.906304 101.596182  L 122.521182 130.818696  L 151.743696 80.203818  L 101.128818 50.981304  L 71.906304 101.596182  " clip-path="url(#p50ad47a3bc)" style="fill: none; stroke: #008000; stroke-linecap: square"/>
   </g>
   <g id="line2d_39">
    <path d="M 75.128797 112.086562  L 133.011562 127.596203  L 148.521203 69.713438  L 90.638438 54.203797  L 75.128797 112.086562  " clip-path="url(#p50ad47a3bc)" style="fill: none; stroke: #008000; stroke-linecap: square"/>
   </g>
   <g id="line2d_40">
    <path d="M 81.122866 121.602134  L 142.527134 121.602134  L 142.527134 60.197866  L 81.122866 60.197866  L 81.122866 121.602134  " clip-path="url(#p50ad47a3bc)" style="fill: none; stroke: #008000; stroke-linecap: square"/>
   </g>
   <g id="line2d_41">
    <path d="M 89.592188 129.408361  L 150.333361 113.132813  L 134.057813 52.391639  L 73.316639 68.667188  L 89.592188 129.408361  " clip-path="url(#p50ad47a3bc)" style="fill: none; stroke: #008000; stroke-linecap: square"/>
   </g>
   <g id="line2d_42">
    <path d="M 100.04566 134.861095  L 155.786095 102.67934  L 123.60434 46.938905  L 67.863905 79.12066  L 100.04566 134.861095  " clip-path="url(#p50ad47a3bc)" style="fill: none; stroke: #008000; stroke-linecap: square"/>
   </g>
   <g id="line2d_43">
    <path d="M 111.825 137.458125  L 158.383125 90.9  L 111.825 44.341875  L 65.266875 90.9  L 111.825 137.458125  " clip-path="url(#p50ad47a3bc)" style="fill: none; stroke: #008000; stroke-linecap: square"/>
   </g>
   <g id="line2d_44">
    <path d="M 124.145919 136.882295  L 157.807295 78.579081  L 99.504081 44.917705  L 65.842705 103.220919  L 124.145919 136.882295  " clip-path="url(#p50ad47a3bc)" style="fill: none; stroke: #008000; stroke-linecap: square"/>
   </g>
   <g id="line2d_45">
    <path d="M 136.150312 133.032677  L 153.957677 66.574688  L 87.499688 48.767323  L 69.692323 115.225312  L 136.150312 133.032677  " clip-path="url(#p50ad47a3bc)" style="fill: none; stroke: #008000; stroke-linecap: square"/>
   </g>
   <g id="line2d_46">
    <path d="M 146.965997 126.040997  L 146.965997 55.759003  L 76.684003 55.759003  L 76.684003 126.040997  L 146.965997 126.040997  " clip-path="url(#p50ad47a3bc)" style="fill: none; stroke: #008000; stroke-linecap: square"/>
   </g>
   <g id="line2d_47">
    <path d="M 155.769835 116.271563  L 137.196562 46.955165  L 67.880165 65.528438  L 86.453438 134.844835  L 155.769835 116.271563  " clip-path="url(#p50ad47a3bc)" style="fill: none; stroke: #008000; stroke-linecap: square"/>
   </g>
   <g id="line2d_48">
    <path d="M 161.849695 104.304077  L 125.229077 40.875305  L 61.800305 77.495923  L 98.420923 140.924695  L 161.849695 104.304077  " clip-path="url(#p50ad47a3bc)" style="fill: none; stroke: #008000; stroke-linecap: square"/>
   </g>
   <g id="line2d_49">
    <path d="M 164.660625 90.9  L 111.825 38.064375  L 58.989375 90.9  L 111.825 143.735625  L 164.660625 90.9  " clip-path="url(#p50ad47a3bc)" style="fill: none; stroke: #008000; stroke-linecap: square"/>
   </g>
   <g id="line2d_50">
    <path d="M 163.870895 76.954345  L 97.879345 38.854105  L 59.779105 104.845655  L 125.770655 142.945895  L 163.870895 76.954345  " clip-path="url(#p50ad47a3bc)" style="fill: none; stroke: #008000; stroke-linecap: square"/>
   </g>
   <g id="line2d_51">
    <path d="M 159.394152 63.435938  L 84.360938 43.330848  L 64.255848 118.364062  L 139.289063 138.469152  L 159.394152 63.435938  " clip-path="url(#p50ad47a3bc)" style="fill: none; stroke: #008000; stroke-linecap: square"/>
   </g>
   <g id="line2d_52">
    <path d="M 151.40486 51.32014  L 72.24514 51.32014  L 72.24514 130.47986  L 151.40486 130.47986  L 151.40486 51.32014  " clip-path="url(#p50ad47a3bc)" style="fill: none; stroke: #008000; stroke-linecap: square"/>
   </g>
  </g>
 </g>
 <defs>
  
 </defs>
</svg>