<?xml version="1.0" ?><!DOCTYPE svg  PUBLIC '-//W3C//DTD SVG 1.1//EN'  'http://www.w3.org/Graphics/SVG/1.1/DTD/svg11.dtd'><svg xmlns:xlink="http://www.w3.org/1999/xlink" xmlns="http://www.w3.org/2000/svg" width="430.2pt" height="430.2pt" viewBox="0 0 430.2 430.2" version="1.1">
 <metadata>
  <rdf:RDF xmlns:dc="http://purl.org/dc/elements/1.1/" xmlns:cc="http://creativecommons.org/ns#" xmlns:rdf="http://www.w3.org/1999/02/22-rdf-syntax-ns#">
   <cc:Work>
    <dc:type rdf:resource="http://purl.org/dc/dcmitype/StillImage"/>
    <dc:date>2024-10-31T14:26:11.583274</dc:date>
    <dc:format>image/svg+xml</dc:format>
    <dc:creator>
     <cc:Agent>
      <dc:title>Matplotlib v3.9.2, https://matplotlib.org/</dc:title>
     </cc:Agent>
    </dc:creator>
   </cc:Work>
  </rdf:RDF>
 </metadata>
 <defs>
  <style type="text/css">*{stroke-linejoin: round; stroke-linecap: butt}</style>
 </defs>
 <g id="figure_1">
  <g id="patch_1">
   <path d="M 0 430.2  L 430.2 430.2  L 430.2 0  L 0 0  z " style="fill: #ffffff"/>
  </g>
  <g id="axes_1">
   <g id="line2d_1">
    <path d="M 121.545 215.1  L 111.15 204.705  L 100.755 215.1  L 111.15 225.495  L 121.545 215.1  " clip-path="url(#p834d1a2f5e)" style="fill: none; stroke: #ff0000; stroke-linecap: square"/>
   </g>
   <g id="line2d_2">
    <path d="M 125.207119 211.333406  L 107.383406 201.042881  L 97.092881 218.866594  L 114.916594 229.157119  L 125.207119 211.333406  " clip-path="url(#p834d1a2f5e)" style="fill: none; stroke: #ff0000; stroke-linecap: square"/>
   </g>
   <g id="line2d_3">
    <path d="M 127.354201 205.7445  L 101.7945 198.895799  L 94.945799 224.4555  L 120.5055 231.304201  L 127.354201 205.7445  " clip-path="url(#p834d1a2f5e)" style="fill: none; stroke: #ff0000; stroke-linecap: square"/>
   </g>
   <g id="line2d_4">
    <path d="M 127.320825 198.929175  L 94.979175 198.929175  L 94.979175 231.270825  L 127.320825 231.270825  L 127.320825 198.929175  " clip-path="url(#p834d1a2f5e)" style="fill: none; stroke: #ff0000; stroke-linecap: square"/>
   </g>
   <g id="line2d_5">
    <path d="M 124.6635 191.693931  L 87.743931 201.5865  L 97.6365 238.506069  L 134.556069 228.6135  L 124.6635 191.693931  " clip-path="url(#p834d1a2f5e)" style="fill: none; stroke: #ff0000; stroke-linecap: square"/>
   </g>
   <g id="line2d_6">
    <path d="M 163.3329 215.1  L 152.9379 204.705  L 142.5429 215.1  L 152.9379 225.495  L 163.3329 215.1  " clip-path="url(#p834d1a2f5e)" style="fill: none; stroke: #ff0000; stroke-linecap: square"/>
   </g>
   <g id="line2d_7">
    <path d="M 166.995019 211.333406  L 149.171306 201.042881  L 138.880781 218.866594  L 156.704494 229.157119  L 166.995019 211.333406  " clip-path="url(#p834d1a2f5e)" style="fill: none; stroke: #ff0000; stroke-linecap: square"/>
   </g>
   <g id="line2d_8">
    <path d="M 169.142101 205.7445  L 143.5824 198.895799  L 136.733699 224.4555  L 162.2934 231.304201  L 169.142101 205.7445  " clip-path="url(#p834d1a2f5e)" style="fill: none; stroke: #ff0000; stroke-linecap: square"/>
   </g>
   <g id="line2d_9">
    <path d="M 169.108725 198.929175  L 136.767075 198.929175  L 136.767075 231.270825  L 169.108725 231.270825  L 169.108725 198.929175  " clip-path="url(#p834d1a2f5e)" style="fill: none; stroke: #ff0000; stroke-linecap: square"/>
   </g>
   <g id="line2d_10">
    <path d="M 166.4514 191.693931  L 129.531831 201.5865  L 139.4244 238.506069  L 176.343969 228.6135  L 166.4514 191.693931  " clip-path="url(#p834d1a2f5e)" style="fill: none; stroke: #ff0000; stroke-linecap: square"/>
   </g>
   <g id="line2d_11">
    <path d="M 203.00022 209.73618  L 192.60522 199.34118  L 182.21022 209.73618  L 192.60522 220.13118  L 203.00022 209.73618  " clip-path="url(#p834d1a2f5e)" style="fill: none; stroke: #ff0000; stroke-linecap: square"/>
   </g>
   <g id="line2d_12">
    <path d="M 206.662339 205.969586  L 188.838626 195.679061  L 178.548101 213.502774  L 196.371814 223.793299  L 206.662339 205.969586  " clip-path="url(#p834d1a2f5e)" style="fill: none; stroke: #ff0000; stroke-linecap: square"/>
   </g>
   <g id="line2d_13">
    <path d="M 208.809421 200.38068  L 183.24972 193.531979  L 176.401019 219.09168  L 201.96072 225.940381  L 208.809421 200.38068  " clip-path="url(#p834d1a2f5e)" style="fill: none; stroke: #ff0000; stroke-linecap: square"/>
   </g>
   <g id="line2d_14">
    <path d="M 208.776045 193.565355  L 176.434395 193.565355  L 176.434395 225.907005  L 208.776045 225.907005  L 208.776045 193.565355  " clip-path="url(#p834d1a2f5e)" style="fill: none; stroke: #ff0000; stroke-linecap: square"/>
   </g>
   <g id="line2d_15">
    <path d="M 206.11872 186.330111  L 169.199151 196.22268  L 179.09172 233.142249  L 216.011289 223.24968  L 206.11872 186.330111  " clip-path="url(#p834d1a2f5e)" style="fill: none; stroke: #ff0000; stroke-linecap: square"/>
   </g>
   <g id="line2d_16">
    <path d="M 247.98978 215.1  L 237.59478 204.705  L 227.19978 215.1  L 237.59478 225.495  L 247.98978 215.1  " clip-path="url(#p834d1a2f5e)" style="fill: none; stroke: #ff0000; stroke-linecap: square"/>
   </g>
   <g id="line2d_17">
    <path d="M 251.651899 211.333406  L 233.828186 201.042881  L 223.537661 218.866594  L 241.361374 229.157119  L 251.651899 211.333406  " clip-path="url(#p834d1a2f5e)" style="fill: none; stroke: #ff0000; stroke-linecap: square"/>
   </g>
   <g id="line2d_18">
    <path d="M 253.798981 205.7445  L 228.23928 198.895799  L 221.390579 224.4555  L 246.95028 231.304201  L 253.798981 205.7445  " clip-path="url(#p834d1a2f5e)" style="fill: none; stroke: #ff0000; stroke-linecap: square"/>
   </g>
   <g id="line2d_19">
    <path d="M 253.765605 198.929175  L 221.423955 198.929175  L 221.423955 231.270825  L 253.765605 231.270825  L 253.765605 198.929175  " clip-path="url(#p834d1a2f5e)" style="fill: none; stroke: #ff0000; stroke-linecap: square"/>
   </g>
   <g id="line2d_20">
    <path d="M 251.10828 191.693931  L 214.188711 201.5865  L 224.08128 238.506069  L 261.000849 228.6135  L 251.10828 191.693931  " clip-path="url(#p834d1a2f5e)" style="fill: none; stroke: #ff0000; stroke-linecap: square"/>
   </g>
   <g id="line2d_21">
    <path d="M 286.57602 215.1  L 276.18102 204.705  L 265.78602 215.1  L 276.18102 225.495  L 286.57602 215.1  " clip-path="url(#p834d1a2f5e)" style="fill: none; stroke: #ff0000; stroke-linecap: square"/>
   </g>
   <g id="line2d_22">
    <path d="M 290.238139 211.333406  L 272.414426 201.042881  L 262.123901 218.866594  L 279.947614 229.157119  L 290.238139 211.333406  " clip-path="url(#p834d1a2f5e)" style="fill: none; stroke: #ff0000; stroke-linecap: square"/>
   </g>
   <g id="line2d_23">
    <path d="M 292.385221 205.7445  L 266.82552 198.895799  L 259.976819 224.4555  L 285.53652 231.304201  L 292.385221 205.7445  " clip-path="url(#p834d1a2f5e)" style="fill: none; stroke: #ff0000; stroke-linecap: square"/>
   </g>
   <g id="line2d_24">
    <path d="M 292.351845 198.929175  L 260.010195 198.929175  L 260.010195 231.270825  L 292.351845 231.270825  L 292.351845 198.929175  " clip-path="url(#p834d1a2f5e)" style="fill: none; stroke: #ff0000; stroke-linecap: square"/>
   </g>
   <g id="line2d_25">
    <path d="M 289.69452 191.693931  L 252.774951 201.5865  L 262.66752 238.506069  L 299.587089 228.6135  L 289.69452 191.693931  " clip-path="url(#p834d1a2f5e)" style="fill: none; stroke: #ff0000; stroke-linecap: square"/>
   </g>
   <g id="line2d_26">
    <path d="M 329.445 215.1  L 319.05 204.705  L 308.655 215.1  L 319.05 225.495  L 329.445 215.1  " clip-path="url(#p834d1a2f5e)" style="fill: none; stroke: #ff0000; stroke-linecap: square"/>
   </g>
   <g id="line2d_27">
    <path d="M 333.107119 211.333406  L 315.283406 201.042881  L 304.992881 218.866594  L 322.816594 229.157119  L 333.107119 211.333406  " clip-path="url(#p834d1a2f5e)" style="fill: none; stroke: #ff0000; stroke-linecap: square"/>
   </g>
   <g id="line2d_28">
    <path d="M 335.254201 205.7445  L 309.6945 198.895799  L 302.845799 224.4555  L 328.4055 231.304201  L 335.254201 205.7445  " clip-path="url(#p834d1a2f5e)" style="fill: none; stroke: #ff0000; stroke-linecap: square"/>
   </g>
   <g id="line2d_29">
    <path d="M 335.220825 198.929175  L 302.879175 198.929175  L 302.879175 231.270825  L 335.220825 231.270825  L 335.220825 198.929175  " clip-path="url(#p834d1a2f5e)" style="fill: none; stroke: #ff0000; stroke-linecap: square"/>
   </g>
   <g id="line2d_30">
    <path d="M 332.5635 191.693931  L 295.643931 201.5865  L 305.5365 238.506069  L 342.456069 228.6135  L 332.5635 191.693931  " clip-path="url(#p834d1a2f5e)" style="fill: none; stroke: #ff0000; stroke-linecap: square"/>
   </g>
  </g>
 </g>
 <defs>
  <clipPath id="p834d1a2f5e">
   
  </clipPath>
 </defs>
</svg>