<?xml version="1.0" ?><!DOCTYPE svg  PUBLIC '-//W3C//DTD SVG 1.1//EN'  'http://www.w3.org/Graphics/SVG/1.1/DTD/svg11.dtd'><svg xmlns:xlink="http://www.w3.org/1999/xlink" xmlns="http://www.w3.org/2000/svg" width="321.3pt" height="321.3pt" viewBox="0 0 321.3 321.3" version="1.1">
 <metadata>
  <rdf:RDF xmlns:dc="http://purl.org/dc/elements/1.1/" xmlns:cc="http://creativecommons.org/ns#" xmlns:rdf="http://www.w3.org/1999/02/22-rdf-syntax-ns#">
   <cc:Work>
    <dc:type rdf:resource="http://purl.org/dc/dcmitype/StillImage"/>
    <dc:date>2024-10-09T16:50:30.884700</dc:date>
    <dc:format>image/svg+xml</dc:format>
    <dc:creator>
     <cc:Agent>
      <dc:title>Matplotlib v3.9.2, https://matplotlib.org/</dc:title>
     </cc:Agent>
    </dc:creator>
   </cc:Work>
  </rdf:RDF>
 </metadata>
 <defs>
  <style type="text/css">*{stroke-linejoin: round; stroke-linecap: butt}</style>
 </defs>
 <g id="figure_1">
  <g id="patch_1">
   <path d="M 0 321.3  L 321.3 321.3  L 321.3 0  L 0 0  z " style="fill: #ffffff"/>
  </g>
  <g id="axes_1">
   <g id="line2d_1">
    <path d="M 168.3225 160.65  L 160.65 152.9775  L 152.9775 160.65  L 160.65 168.3225  L 168.3225 160.65  " clip-path="url(#p4f18a2169a)" style="fill: none; stroke: #000000; stroke-linecap: square"/>
   </g>
   <g id="line2d_2">
    <path d="M 171.025492 157.869895  L 157.869895 150.274508  L 150.274508 163.430105  L 163.430105 171.025492  L 171.025492 157.869895  " clip-path="url(#p4f18a2169a)" style="fill: none; stroke: #000000; stroke-linecap: square"/>
   </g>
   <g id="line2d_3">
    <path d="M 172.610244 153.74475  L 153.74475 148.689756  L 148.689756 167.55525  L 167.55525 172.610244  L 172.610244 153.74475  " clip-path="url(#p4f18a2169a)" style="fill: none; stroke: #000000; stroke-linecap: square"/>
   </g>
   <g id="line2d_4">
    <path d="M 172.585609 148.714391  L 148.714391 148.714391  L 148.714391 172.585609  L 172.585609 172.585609  L 172.585609 148.714391  " clip-path="url(#p4f18a2169a)" style="fill: none; stroke: #000000; stroke-linecap: square"/>
   </g>
   <g id="line2d_5">
    <path d="M 170.62425 143.374092  L 143.374092 150.67575  L 150.67575 177.925908  L 177.925908 170.62425  L 170.62425 143.374092  " clip-path="url(#p4f18a2169a)" style="fill: none; stroke: #000000; stroke-linecap: square"/>
   </g>
  </g>
 </g>
 <defs>
  <clipPath id="p4f18a2169a">
   
  </clipPath>
 </defs>
</svg>